<?xml version="1.0" standalone="no"?>
<!DOCTYPE svg PUBLIC "-//W3C//DTD SVG 20010904//EN"
 "http://www.w3.org/TR/2001/REC-SVG-20010904/DTD/svg10.dtd">
<svg version="1.0" xmlns="http://www.w3.org/2000/svg"
 width="437.000000pt" height="437.000000pt" viewBox="0 0 437.000000 437.000000"
 preserveAspectRatio="xMidYMid meet">

<g transform="translate(0.000000,437.000000) scale(0.100000,-0.100000)"
fill="#000000" stroke="none">
<path d="M2073 4113 l-93 -4 0 -34 c0 -35 1 -35 44 -35 l43 0 6 -96 c6 -102
18 -131 51 -118 16 6 18 19 15 113 l-4 106 43 3 c36 3 42 6 42 26 0 26 -18 47
-39 44 -9 -1 -58 -4 -108 -5z"/>
<path d="M2460 4084 c-6 -14 -10 -29 -10 -34 0 -10 25 -20 52 -20 19 0 20 -4
14 -47 -4 -27 -9 -76 -13 -109 -5 -57 -4 -62 16 -69 32 -10 38 -1 51 78 22
141 16 130 65 123 34 -6 44 -4 49 9 12 33 7 55 -15 55 -12 0 -47 6 -78 14
-114 28 -121 28 -131 0z"/>
<path d="M1832 4081 c-10 -6 -11 -22 -2 -76 6 -37 8 -70 6 -73 -6 -5 -21 5
-96 66 -58 47 -100 56 -100 21 0 -43 42 -235 57 -258 15 -23 15 -23 34 -4 17
16 18 25 10 68 -5 28 -13 58 -16 68 -12 29 8 20 80 -38 69 -54 88 -62 113 -47
10 7 10 25 -3 93 -9 46 -21 108 -26 137 -11 53 -25 64 -57 43z"/>
<path d="M2802 4017 c-12 -17 -46 -100 -72 -180 -17 -54 -19 -71 -10 -82 20
-24 40 -17 56 20 8 19 21 35 30 35 16 0 44 -56 44 -88 0 -10 9 -27 20 -37 31
-28 50 -5 43 53 -5 45 -3 48 24 60 53 22 71 88 39 137 -9 14 -39 36 -67 50
-78 40 -96 45 -107 32z m83 -91 c29 -12 35 -20 35 -44 0 -38 -16 -44 -60 -23
-34 16 -47 39 -36 67 7 18 18 18 61 0z"/>
<path d="M1434 3966 c-97 -40 -104 -44 -104 -59 0 -11 106 -247 115 -255 5 -5
147 48 159 59 12 11 -2 59 -18 59 -7 0 -35 -9 -61 -21 -39 -17 -49 -19 -56 -8
-16 26 -9 38 35 57 53 24 60 33 42 58 -14 18 -16 18 -63 1 -62 -22 -65 -22
-61 10 2 22 12 31 58 49 58 23 69 38 48 66 -12 16 -19 15 -94 -16z"/>
<path d="M1083 3772 c-35 -20 -63 -41 -63 -46 0 -5 29 -52 63 -105 35 -53 70
-107 77 -121 7 -14 14 -26 15 -28 2 -2 28 13 59 34 47 31 59 45 76 91 11 29
20 64 20 77 0 31 -38 85 -79 113 -50 34 -95 30 -168 -15z m152 -57 c34 -33 34
-87 0 -120 -13 -14 -28 -25 -32 -25 -4 1 -27 30 -50 65 l-42 64 27 20 c36 27
68 26 97 -4z"/>
<path d="M3135 3772 c-156 -94 -187 -128 -142 -156 15 -9 22 -7 37 12 l19 23
56 -42 c49 -37 56 -46 51 -69 -6 -32 9 -50 41 -50 23 0 25 6 37 105 2 22 10
72 17 112 20 113 -9 129 -116 65z m50 -94 c-4 -24 -9 -45 -11 -47 -3 -3 -17 7
-32 23 l-27 27 24 20 c40 33 54 25 46 -23z"/>
<path d="M3362 3647 c-36 -62 -77 -214 -67 -248 9 -27 31 -24 115 17 63 30
170 93 170 100 0 1 -12 9 -26 19 -24 16 -27 15 -77 -10 -29 -15 -60 -34 -69
-42 -33 -29 -35 -7 -7 67 33 85 36 115 13 124 -26 10 -31 7 -52 -27z"/>
<path d="M2060 3643 c-232 -40 -395 -92 -534 -170 -214 -118 -376 -269 -508
-468 -145 -219 -225 -447 -250 -712 -39 -427 106 -818 422 -1133 92 -92 137
-129 225 -182 193 -116 379 -182 589 -208 121 -16 384 -8 481 14 234 53 482
175 638 315 58 53 185 200 208 242 9 16 25 38 35 47 20 19 27 29 75 110 17 28
34 52 38 52 17 0 74 146 106 268 102 390 15 849 -229 1207 -83 122 -268 308
-376 378 -254 163 -535 250 -803 246 -51 -1 -103 -4 -117 -6z m315 -121 c93
-59 238 -175 274 -219 26 -31 33 -34 72 -31 l44 3 -90 93 c-49 52 -112 110
-139 130 -27 20 -44 38 -38 40 6 2 51 -11 99 -29 413 -151 727 -458 867 -849
24 -65 66 -220 66 -242 0 -5 -186 -8 -412 -8 -227 0 -418 -4 -424 -8 -15 -9 0
-52 18 -53 7 0 195 -2 418 -2 l405 -2 7 -45 c3 -25 7 -68 7 -97 l1 -52 -252
-3 c-261 -3 -263 -3 -286 39 -12 20 -48 9 -55 -17 -5 -18 -14 -20 -101 -20
-96 0 -96 0 -96 -25 0 -37 37 -48 132 -39 l78 7 0 -111 c0 -150 -14 -237 -66
-421 -75 -264 -179 -438 -336 -563 -35 -27 -72 -57 -84 -66 -71 -58 -151 -98
-214 -108 -46 -7 -50 3 -50 129 l0 87 -35 0 -35 0 0 -105 0 -105 -30 0 c-29 0
-115 38 -245 109 -150 82 -296 258 -363 436 -30 79 -46 101 -84 121 l-31 16 7
-48 c7 -55 60 -164 139 -286 54 -84 198 -230 266 -271 84 -51 -71 -17 -196 42
-97 47 -225 130 -307 200 -119 101 -261 281 -329 417 -66 131 -137 376 -137
472 0 34 3 38 23 38 18 -1 22 5 25 37 3 36 2 37 -28 37 l-32 0 7 93 c4 50 10
95 14 99 4 4 122 5 264 1 l257 -6 0 -42 c0 -35 4 -44 22 -48 30 -8 38 -1 38
38 0 61 5 65 81 65 58 0 70 3 79 20 18 33 3 40 -77 40 l-76 0 8 110 7 110 -26
11 c-14 7 -29 10 -32 7 -3 -3 -7 -48 -10 -99 -3 -52 -7 -104 -10 -116 l-4 -23
-255 0 -255 0 0 23 c0 37 40 210 52 224 6 7 15 34 19 60 5 25 16 54 25 64 8 9
20 34 26 55 6 22 23 53 38 71 16 17 31 41 35 52 3 12 10 21 15 21 5 0 17 16
26 35 19 41 129 146 259 250 118 93 164 124 255 170 81 41 247 97 254 86 3 -4
-18 -22 -46 -41 -74 -51 -193 -192 -240 -284 -21 -43 -38 -79 -36 -81 2 -2 15
-6 30 -10 24 -6 29 -3 42 26 8 19 17 46 20 60 6 29 171 201 251 261 62 47 179
105 228 114 l37 6 1 -263 c0 -145 3 -282 7 -304 6 -34 11 -40 32 -40 l25 0 5
298 c6 322 6 323 60 310 14 -4 57 -26 95 -51z m689 -1423 c-6 -11 99 -19 298
-22 98 -2 179 -5 182 -8 9 -9 -15 -165 -40 -263 -55 -211 -152 -371 -342 -564
-100 -101 -148 -141 -228 -190 -189 -116 -406 -205 -388 -159 3 9 17 23 30 32
14 9 22 20 19 25 -3 6 1 7 9 4 15 -6 21 6 16 31 -1 5 2 7 6 3 9 -10 35 12 28
23 -3 5 2 12 10 15 9 3 16 16 16 28 0 25 15 51 29 51 6 0 17 9 26 20 9 11 13
14 10 6 -5 -9 1 -8 18 4 16 10 29 30 33 51 3 19 10 34 15 34 15 0 49 43 49 62
0 10 4 18 8 18 9 0 52 81 52 98 0 6 18 67 40 134 57 174 80 295 80 426 0 120
8 182 21 161 4 -7 6 -16 3 -20z"/>
<path d="M2648 3136 c-63 -17 -96 -41 -277 -202 -138 -123 -155 -135 -174
-126 -12 7 -121 36 -242 66 -121 30 -238 60 -260 65 -138 36 -338 81 -382 87
-49 6 -54 5 -83 -24 -20 -21 -30 -40 -30 -62 0 -27 7 -35 61 -68 33 -20 142
-88 242 -150 100 -63 220 -135 266 -160 46 -26 86 -53 89 -61 3 -8 -16 -34
-49 -64 -30 -28 -106 -101 -170 -161 -174 -168 -215 -199 -247 -193 -15 3 -81
17 -147 31 -66 14 -133 26 -149 26 -38 0 -96 -58 -96 -97 0 -33 6 -37 140
-108 91 -48 95 -52 101 -89 7 -43 30 -66 65 -66 41 0 54 -12 116 -102 67 -99
92 -120 126 -111 44 11 54 51 42 169 -12 114 -11 118 40 159 14 11 95 78 180
148 85 71 188 156 229 189 l74 61 21 -25 c101 -122 283 -338 341 -403 38 -44
96 -112 128 -152 32 -40 67 -75 78 -78 26 -9 67 19 75 49 10 39 -114 445 -240
785 -25 69 -46 128 -46 133 0 4 78 78 173 164 184 167 216 210 217 297 0 60
-34 87 -107 86 -32 0 -79 -6 -105 -13z m-8 -180 c14 -26 14 -28 -9 -47 -22
-18 -25 -18 -42 -3 -23 21 -24 33 -3 62 19 28 34 24 54 -12z m-86 -62 c10 -25
7 -42 -10 -59 -15 -15 -18 -15 -35 1 -23 21 -24 38 -3 58 20 20 40 20 48 0z
m-76 -84 c3 -37 -13 -58 -35 -44 -36 22 -28 78 9 72 16 -2 24 -11 26 -28z
m-94 -56 c20 -19 20 -35 2 -59 -8 -11 -20 -16 -29 -12 -22 8 -32 53 -17 72 16
19 25 19 44 -1z m-74 -85 c13 -23 13 -25 -6 -43 -20 -21 -54 -4 -54 27 0 45
39 56 60 16z m-100 -68 c14 -28 13 -38 -11 -62 -20 -20 -22 -20 -40 -3 -24 22
-24 39 1 64 25 25 37 25 50 1z m-95 -101 c8 -25 -10 -50 -36 -50 -20 0 -36 40
-24 59 11 19 53 12 60 -9z m-87 -52 c18 -18 15 -43 -8 -63 -16 -15 -22 -15
-35 -5 -27 23 -13 80 20 80 6 0 16 -5 23 -12z m-62 -73 c13 -20 14 -28 4 -40
-7 -8 -21 -15 -31 -15 -15 0 -19 7 -19 34 0 29 5 38 27 45 2 1 10 -10 19 -24z
m-68 -83 c-2 -14 -11 -30 -21 -36 -15 -9 -21 -7 -33 8 -19 26 -18 32 7 57 16
16 23 18 35 8 8 -7 14 -23 12 -37z m-85 -53 c14 -22 2 -49 -22 -49 -22 0 -39
40 -26 60 9 15 35 9 48 -11z m-69 -61 c8 -13 8 -23 0 -35 -17 -28 -42 -27 -55
1 -21 46 28 76 55 34z m-84 -52 c6 -8 10 -25 8 -38 -4 -33 -52 -33 -56 0 -7
47 21 69 48 38z m-276 -218 c-6 -10 -5 -10 7 -1 13 10 16 10 16 -2 0 -8 -4
-15 -9 -15 -5 0 -7 -4 -4 -9 9 -13 -42 -43 -80 -46 -30 -3 -32 -1 -25 18 5 12
26 32 47 43 46 26 58 29 48 12z"/>
<path d="M2977 3049 c-17 -10 -19 -23 -16 -133 1 -66 -3 -152 -9 -191 -16 -98
-15 -122 8 -145 24 -24 72 -26 91 -4 10 13 10 31 0 102 -7 48 -16 148 -20 222
-8 160 -12 173 -54 149z"/>
<path d="M2157 2073 c-4 -3 -7 -35 -7 -70 l0 -63 35 0 c35 0 35 1 35 43 0 24
-6 50 -12 58 -21 24 -44 39 -51 32z"/>
<path d="M1974 1817 c-26 -23 -38 -45 -43 -72 -6 -38 -9 -40 -51 -47 -30 -5
-54 -18 -77 -40 l-32 -33 -3 -232 -3 -233 33 -32 32 -33 273 -3 c301 -3 309
-1 340 58 17 32 18 54 13 255 -8 273 -8 274 -137 290 -44 6 -47 8 -54 42 -15
84 -62 113 -180 113 -71 0 -77 -2 -111 -33z m184 -34 c13 -3 28 -17 33 -32 15
-39 -10 -51 -108 -51 l-83 0 0 28 c0 34 9 48 35 55 30 7 97 8 123 0z m200
-159 c20 -14 22 -24 22 -101 0 -84 0 -85 -22 -79 -13 3 -49 6 -82 6 -57 0 -58
0 -52 25 6 22 3 25 -18 25 -20 0 -27 -7 -35 -37 -6 -21 -11 -50 -11 -65 0 -27
-2 -28 -49 -28 l-50 0 10 -29 c11 -32 32 -41 96 -41 47 0 66 20 56 58 -5 21
-2 22 76 22 l81 0 0 -98 c0 -63 -4 -102 -12 -110 -9 -9 -78 -12 -248 -12 -291
0 -280 -5 -280 114 0 91 3 96 72 96 24 0 27 -4 30 -37 3 -33 6 -38 28 -38 19
0 27 7 35 31 6 17 16 38 24 47 7 9 11 27 8 39 -3 13 -10 39 -14 58 -7 28 -14
35 -33 35 -21 0 -25 -5 -25 -30 -1 -30 -1 -30 -63 -33 l-62 -3 0 79 c0 81 8
100 50 115 8 3 112 6 230 6 180 1 219 -2 238 -15z"/>
<path d="M906 3625 c-25 -19 -17 -37 53 -123 28 -35 51 -67 51 -71 0 -16 -42
-61 -56 -61 -9 0 -45 32 -81 70 -68 72 -82 80 -103 55 -10 -12 -4 -25 33 -72
57 -74 72 -88 126 -109 42 -16 45 -16 77 1 21 11 42 35 54 61 30 62 17 101
-68 191 -62 68 -68 72 -86 58z"/>
<path d="M3610 3407 c-147 -98 -182 -122 -186 -129 -7 -11 11 -43 59 -108 23
-30 42 -57 43 -58 2 -2 12 -1 23 3 28 9 26 34 -4 75 -30 41 -32 66 -6 80 17 8
23 3 46 -35 28 -49 36 -53 55 -30 11 13 9 24 -10 66 -18 38 -21 52 -12 61 9 9
22 1 56 -36 40 -43 46 -46 65 -34 12 7 21 17 21 21 0 19 -95 147 -109 147 -4
0 -22 -10 -41 -23z"/>
<path d="M632 3309 c-34 -39 -62 -76 -62 -83 0 -7 7 -21 15 -32 15 -19 15 -18
38 6 51 56 48 57 137 -15 79 -63 83 -66 101 -49 33 29 22 48 -61 108 -79 57
-90 72 -69 93 16 16 4 43 -18 43 -10 0 -47 -32 -81 -71z"/>
<path d="M3725 3098 c-55 -32 -107 -63 -115 -68 -12 -7 -8 -21 25 -87 52 -103
53 -105 76 -92 24 12 24 26 -1 80 -11 24 -20 49 -20 55 0 5 21 20 46 33 66 31
114 70 114 91 0 23 -10 50 -19 49 -3 -1 -51 -28 -106 -61z"/>
<path d="M486 3062 c-37 -42 -29 -139 15 -162 48 -26 129 9 129 55 0 9 5 25
10 36 9 15 15 17 30 9 27 -15 25 -46 -5 -82 -33 -39 -34 -78 -2 -78 45 0 87
73 87 151 0 54 -27 79 -83 79 -48 0 -71 -17 -82 -62 -4 -14 -15 -34 -26 -44
-21 -19 -22 -17 -23 71 -1 46 -22 57 -50 27z"/>
<path d="M3845 2690 c-7 -21 37 -253 55 -297 6 -15 18 -23 35 -23 22 0 25 4
25 38 0 72 -38 263 -56 283 -22 25 -51 24 -59 -1z"/>
<path d="M465 2648 c-24 -85 -45 -196 -45 -239 0 -39 1 -40 32 -37 27 2 34 8
40 33 56 237 61 268 42 282 -35 26 -53 16 -69 -39z"/>
<path d="M3875 2224 c-9 -9 -15 -24 -13 -33 3 -13 14 -15 55 -13 75 5 73 -14
-2 -29 -64 -12 -76 -24 -53 -47 20 -20 112 -15 131 6 24 27 21 75 -5 99 -32
29 -91 38 -113 17z"/>
<path d="M382 2218 c-23 -23 -12 -35 33 -41 53 -5 60 -10 52 -32 -5 -12 -17
-14 -62 -9 -58 7 -69 -1 -39 -31 12 -12 31 -15 77 -13 52 3 63 7 80 30 26 34
16 73 -23 93 -35 18 -101 20 -118 3z"/>
<path d="M443 1953 c-32 -12 10 -239 78 -421 61 -165 144 -305 298 -507 81
-107 114 -131 137 -100 8 10 14 24 14 31 0 6 -28 40 -63 75 -117 119 -266 376
-331 569 -19 58 -45 157 -57 220 -27 138 -34 151 -76 133z"/>
<path d="M3895 1938 c-3 -13 -14 -66 -24 -119 -46 -231 -135 -445 -274 -656
-36 -54 -90 -122 -122 -151 -54 -50 -56 -54 -42 -75 27 -42 52 -33 92 32 21
34 41 61 46 61 4 0 17 20 28 44 12 24 30 51 41 61 11 10 20 24 20 30 0 7 7 16
15 19 9 3 24 23 33 43 10 21 30 57 45 80 15 24 27 47 27 53 0 5 3 10 8 10 9 0
32 42 63 115 65 152 129 418 109 455 -15 28 -58 27 -65 -2z"/>
<path d="M1202 830 c-32 -30 -29 -86 7 -141 16 -24 27 -47 25 -51 -13 -20 -46
-5 -70 32 -22 34 -29 38 -46 29 -28 -15 -32 -33 -13 -69 19 -36 69 -70 105
-70 36 0 88 35 96 65 5 19 -3 40 -30 85 -21 33 -34 64 -31 70 12 20 34 9 65
-30 26 -32 35 -38 46 -29 24 20 15 54 -24 92 -45 44 -94 50 -130 17z"/>
<path d="M3045 811 c-16 -10 -44 -32 -62 -47 l-32 -29 40 -64 c43 -71 115
-161 128 -161 5 0 19 8 31 18 l23 19 -21 21 c-12 12 -22 31 -22 42 0 25 37 27
86 4 32 -16 36 -15 54 1 11 10 20 22 20 26 0 4 -23 18 -50 30 -48 22 -50 24
-44 55 8 45 -3 72 -36 89 -39 20 -79 19 -115 -4z m96 -63 c10 -19 8 -25 -20
-50 -39 -35 -49 -35 -62 -1 -12 33 -6 51 23 63 36 14 46 12 59 -12z"/>
<path d="M1462 708 c-19 -23 -120 -246 -114 -252 17 -18 54 -4 73 29 24 40 26
41 65 20 42 -22 78 -18 113 11 26 21 31 33 31 68 0 53 -21 83 -74 105 -68 29
-82 32 -94 19z m76 -84 c30 -21 30 -64 -1 -64 -27 0 -67 26 -67 44 0 15 20 36
35 36 6 0 21 -7 33 -16z"/>
<path d="M2742 640 c-49 -30 -72 -87 -59 -150 25 -126 163 -157 253 -57 33 36
36 44 31 84 -12 112 -134 178 -225 123z m124 -63 c54 -47 20 -137 -51 -137
-54 0 -93 64 -69 112 27 52 76 62 120 25z"/>
<path d="M1727 577 c-64 -38 -94 -126 -63 -185 28 -53 62 -75 124 -80 52 -4
61 -1 90 23 45 37 62 75 62 134 0 44 -4 55 -38 91 -35 36 -43 40 -88 40 -32
-1 -62 -9 -87 -23z m131 -65 c6 -9 12 -31 12 -50 0 -45 -49 -97 -82 -87 -39
12 -68 46 -68 80 0 67 97 107 138 57z"/>
<path d="M2449 573 c-9 -2 -22 -15 -29 -28 -7 -13 -18 -21 -24 -18 -6 3 -8 3
-4 -2 4 -4 3 -14 -3 -22 -23 -27 20 -65 114 -102 36 -14 37 -48 0 -57 -15 -4
-33 -2 -42 5 -44 32 -62 25 -40 -16 19 -36 65 -54 114 -43 52 12 68 31 69 82
1 42 0 43 -44 57 -86 27 -101 34 -111 53 -7 14 -7 23 2 34 16 20 35 18 58 -7
19 -21 21 -21 46 -5 32 21 31 29 -1 55 -25 20 -65 25 -105 14z"/>
<path d="M2045 548 c-2 -7 -6 -46 -10 -86 -8 -92 2 -182 22 -189 24 -9 33 17
33 92 l0 70 35 -40 c20 -22 49 -59 67 -82 32 -43 63 -62 78 -46 4 4 10 71 12
148 3 139 3 140 -20 143 -26 4 -31 -5 -40 -88 -4 -35 -12 -65 -17 -67 -6 -2
-20 16 -33 40 -49 92 -114 145 -127 105z"/>
</g>
</svg>
