<?xml version="1.0" encoding="utf-8"?>
<!-- Generator: Adobe Illustrator 14.0.0, SVG Export Plug-In . SVG Version: 6.00 Build 43363)  -->
<!DOCTYPE svg PUBLIC "-//W3C//DTD SVG 1.1//EN" "http://www.w3.org/Graphics/SVG/1.1/DTD/svg11.dtd">
<svg version="1.1" id="Layer_1" xmlns="http://www.w3.org/2000/svg" xmlns:xlink="http://www.w3.org/1999/xlink" x="0px" y="0px"
	 width="512px" height="512px" viewBox="0 0 512 512" enable-background="new 0 0 512 512" xml:space="preserve">
<g id="XMLID_1_">
	<g>
		<path fill="#0057A3" d="M523-11c0,178,0,356,0,534c-178,0-356,0-534,0c0-164.79,0-334.53,0-500c0-8.02-1.78-32.22,0-34
			c1.66-1.66,25.58,0,33,0C190.28-11,358.18-11,523-11z M470,469c-1.85-11.31,3.19-23.86-2-32c-4.75-7.45-17.56-6.67-23,1
			c0-1.67,0-3.33,0-5c-3.33,0-6.67,0-10,0c0,12,0,24,0,36c1.89,1.77,6.6,0.73,10,1c0.32-13.78-2.62-31.8,9-30
			c9.2,1.42,5.02,17.7,6,30C463.4,469.73,468.11,470.77,470,469z M428,454c4.17-24.43-28.58-27.86-35-12
			c-10.14,25.06,24.85,40.87,34,16c-7.29-2.43-11.49,6-18,5c-3.3-0.5-7.13-2.03-7-9C410.67,454,419.33,454,428,454z M423,283
			c-8,0-16,0-24,0c-7.38,34.97-16.72,73.27-22,107c7.67,0,15.33,0,23,0C408.46,355.12,415.41,318.75,423,283z M387,470
			c0-2.67,0-5.33,0-8c-2.83-0.17-6.86,0.86-7-2c0-6.67,0-13.33,0-20c2.33,0,4.67,0,7,0c0-2.33,0-4.67,0-7c-2.07-0.59-6.57,1.24-7-1
			c0-3.33,0-6.67,0-10c-3.33,0-6.67,0-10,0c0,3.67,0,7.33,0,11c-2,0-4,0-6,0c0,2.33,0,4.67,0,7c1.76,0.58,5.88-1.21,6,1
			C369.63,456.71,366.63,475.04,387,470z M370,283c-8.33,0-16.67,0-25,0c-6.77,36.23-15.31,70.69-22,107c8,0,16,0,24,0
			C354.81,354.47,361.75,318.08,370,283z M358,470c0-17,0-34,0-51c-3.33,0-6.67,0-10,0c0,17,0,34,0,51
			C351.33,470,354.67,470,358,470z M335,466c8.07-7.81,5.66-25.79-2-31c-4.6-3.13-10.38-3.01-16-2c-15.86,2.84-20.38,22.96-10,33
			C313.69,472.47,327.82,472.94,335,466z M333,427c0-2.67,0-5.33,0-8c-3,0-6,0-9,0c0,2.67,0,5.33,0,8C327,427,330,427,333,427z
			 M319,427c0-2.33,0-4.67,0-7c-1.89-1.77-6.6-0.73-10-1c0,2.67,0,5.33,0,8C312.33,427,315.67,427,319,427z M316,283c-8,0-16,0-24,0
			c-7.41,35.59-15.94,70.06-22,107c7.67,0,15.33,0,23,0C301.53,355.19,308.46,318.79,316,283z M280,471c28.35,0,14.16-56.78-12-34
			c1.89-6.22-5.26-3.4-9-4c0,16.67,0,33.33,0,50c3.4-0.27,8.11,0.77,10-1c0-5.33,0-10.67,0-16C272.67,468.82,275.4,471,280,471z
			 M242,470c0-3.67,0-7.33,0-11c-3.67,0-7.33,0-11,0c0,3.33,0,6.67,0,10C233.15,470.85,238.33,469.67,242,470z M241,390
			c0-23.93,6.11-50.13-3-68c-5.55-10.89-22.37-14.77-35-11c-6.53,1.95-9.69,7.42-14,10c0-12.67,0-25.33,0-38c-8.33,0-16.67,0-25,0
			c0,35.67,0,71.33,0,107c8.33,0,16.67,0,25,0c0.67-24.83-7.1-73.11,24-56c4.29,14.71,0.94,38.23,2,56.17
			C222.53,390.17,232.67,390,241,390z M223,470c0-2.67,0-5.33,0-8c-2.83-0.17-6.86,0.86-7-2c0-6.67,0-13.33,0-20c2.33,0,4.67,0,7,0
			c0-2.33,0-4.67,0-7c-2.07-0.59-6.57,1.24-7-1c0-3.33,0-6.67,0-10c-3.33,0-6.67,0-10,0c0,3.67,0,7.33,0,11c-2,0-4,0-6,0
			c0,2.33,0,4.67,0,7c1.76,0.58,5.88-1.21,6,1C205.63,456.71,202.63,475.04,223,470z M162,458c0.47,21.68,42.8,13.86,33-5
			c-3.93-7.56-18.87-1.94-22-12c8.15-7.6,10.89,6.04,21,3c0.98-16.99-36.51-16.89-31,4c4.63,7.04,19.49,3.84,23,12
			C178.25,471,173.24,455.55,162,458z M144,301c0-6,0-12,0-18c-25.45-2.12-44.05,2.62-41,29c-4.33,0-8.67,0-13,0
			c0,5.33,0,10.67,0,16c4.26,0.41,10.3-0.97,13,1c0,20.33,0,40.67,0,61c8.33,0,16.67,0,25,0c0-20.67,0-41.33,0-62c5,0,10,0,15,0
			c0-5.33,0-10.67,0-16c-4.69-0.65-11.97,1.31-15-1c-0.51-4.18,0.56-6.78,2-9C133.46,300.46,139.12,301.12,144,301z M75,283
			c-8,0-16,0-24,0c-6.9,36.1-15.44,70.56-22,107c8,0,16,0,24,0C60.06,354.06,68.57,319.57,75,283z"/>
		<path fill="#FFFFFF" d="M468,437c5.19,8.14,0.15,20.69,2,32c-1.89,1.77-6.6,0.73-10,1c-0.98-12.3,3.2-28.58-6-30
			c-11.62-1.8-8.68,16.22-9,30c-3.4-0.27-8.11,0.77-10-1c0-12,0-24,0-36c3.33,0,6.67,0,10,0c0,1.67,0,3.33,0,5
			C450.44,430.33,463.25,429.55,468,437z"/>
		<path fill="#FFFFFF" d="M393,442c6.42-15.86,39.17-12.43,35,12c-8.67,0-17.33,0-26,0c-0.13,6.97,3.7,8.5,7,9
			c6.51,1,10.71-7.43,18-5C417.85,482.87,382.86,467.06,393,442z M402,447c5.02-0.65,12.64,1.31,16-1
			C417.73,438.33,400.84,437.1,402,447z"/>
		<path fill="#FFFFFF" d="M399,283c8,0,16,0,24,0c-7.59,35.75-14.54,72.12-23,107c-7.67,0-15.33,0-23,0
			C382.28,356.27,391.62,317.97,399,283z"/>
		<path fill="#0057A3" d="M418,446c-3.36,2.31-10.98,0.35-16,1C400.84,437.1,417.73,438.33,418,446z"/>
		<path fill="#FFFFFF" d="M387,462c0,2.67,0,5.33,0,8c-20.37,5.04-17.37-13.29-17-29c-0.12-2.21-4.24-0.42-6-1c0-2.33,0-4.67,0-7
			c2,0,4,0,6,0c0-3.67,0-7.33,0-11c3.33,0,6.67,0,10,0c0,3.33,0,6.67,0,10c0.43,2.24,4.93,0.41,7,1c0,2.33,0,4.67,0,7
			c-2.33,0-4.67,0-7,0c0,6.67,0,13.33,0,20C380.14,462.86,384.17,461.83,387,462z"/>
		<path fill="#FFFFFF" d="M345,283c8.33,0,16.67,0,25,0c-8.25,35.08-15.19,71.47-23,107c-8,0-16,0-24,0
			C329.69,353.69,338.23,319.23,345,283z"/>
		<path fill="#FFFFFF" d="M358,419c0,17,0,34,0,51c-3.33,0-6.67,0-10,0c0-17,0-34,0-51C351.33,419,354.67,419,358,419z"/>
		<path fill="#FFFFFF" d="M333,435c7.66,5.21,10.07,23.19,2,31c-7.18,6.94-21.31,6.47-28,0c-10.38-10.04-5.86-30.16,10-33
			C322.62,431.99,328.4,431.87,333,435z M323,463c8.26-1.52,9.62-17.92,2-23C305.81,437.17,309.31,465.53,323,463z"/>
		<path fill="#FFFFFF" d="M333,419c0,2.67,0,5.33,0,8c-3,0-6,0-9,0c0-2.67,0-5.33,0-8C327,419,330,419,333,419z"/>
		<path fill="#0057A3" d="M325,440c7.62,5.08,6.26,21.48-2,23C309.31,465.53,305.81,437.17,325,440z"/>
		<path fill="#FFFFFF" d="M319,420c0,2.33,0,4.67,0,7c-3.33,0-6.67,0-10,0c0-2.67,0-5.33,0-8C312.4,419.27,317.11,418.23,319,420z"
			/>
		<path fill="#FFFFFF" d="M292,283c8,0,16,0,24,0c-7.54,35.79-14.47,72.19-23,107c-7.67,0-15.33,0-23,0
			C276.06,353.06,284.59,318.59,292,283z"/>
		<path fill="#0057A3" d="M281,440c8.32,5.85,5.8,28.55-9,22C265.95,455.65,266.07,436.64,281,440z"/>
		<path fill="#FFFFFF" d="M268,437c26.16-22.78,40.35,34,12,34c-4.6,0-7.33-2.18-11-5c0,5.33,0,10.67,0,16c-1.89,1.77-6.6,0.73-10,1
			c0-16.67,0-33.33,0-50C262.74,433.6,269.89,430.78,268,437z M272,462c14.8,6.55,17.32-16.15,9-22
			C266.07,436.64,265.95,455.65,272,462z"/>
		<path fill="#FFFFFF" d="M242,459c0,3.67,0,7.33,0,11c-3.67-0.33-8.85,0.85-11-1c0-3.33,0-6.67,0-10C234.67,459,238.33,459,242,459
			z"/>
		<path fill="#FFFFFF" d="M238,322c9.11,17.87,3,44.07,3,68c-8.33,0-18.47,0.17-26,0.17c-1.06-17.939,2.29-41.46-2-56.17
			c-31.1-17.11-23.33,31.17-24,56c-8.33,0-16.67,0-25,0c0-35.67,0-71.33,0-107c8.33,0,16.67,0,25,0c0,12.67,0,25.33,0,38
			c4.31-2.58,7.47-8.05,14-10C215.63,307.23,232.45,311.11,238,322z"/>
		<path fill="#FFFFFF" d="M223,462c0,2.67,0,5.33,0,8c-20.37,5.04-17.37-13.29-17-29c-0.12-2.21-4.24-0.42-6-1c0-2.33,0-4.67,0-7
			c2,0,4,0,6,0c0-3.67,0-7.33,0-11c3.33,0,6.67,0,10,0c0,3.33,0,6.67,0,10c0.43,2.24,4.93,0.41,7,1c0,2.33,0,4.67,0,7
			c-2.33,0-4.67,0-7,0c0,6.67,0,13.33,0,20C216.14,462.86,220.17,461.83,223,462z"/>
		<path fill="#FFFFFF" d="M195,453c9.8,18.86-32.53,26.68-33,5c11.24-2.45,16.25,13,24,2c-3.51-8.16-18.37-4.96-23-12
			c-5.51-20.89,31.98-20.99,31-4c-10.11,3.04-12.85-10.6-21-3C176.13,451.06,191.07,445.44,195,453z"/>
		<path fill="#FFFFFF" d="M144,283c0,6,0,12,0,18c-4.88,0.12-10.54-0.54-14,1c-1.44,2.22-2.51,4.82-2,9c3.03,2.31,10.31,0.35,15,1
			c0,5.33,0,10.67,0,16c-5,0-10,0-15,0c0,20.67,0,41.33,0,62c-8.33,0-16.67,0-25,0c0-20.33,0-40.67,0-61c-2.7-1.97-8.74-0.59-13-1
			c0-5.33,0-10.67,0-16c4.33,0,8.67,0,13,0C99.95,285.62,118.55,280.88,144,283z"/>
		<path fill="#FFFFFF" d="M51,283c8,0,16,0,24,0c-6.43,36.57-14.94,71.06-22,107c-8,0-16,0-24,0C35.56,353.56,44.1,319.1,51,283z"/>
	</g>
	<g>
	</g>
</g>
</svg>
