<?xml version="1.0" encoding="UTF-8"?><svg id="Ebene_1" xmlns="http://www.w3.org/2000/svg" viewBox="0 0 381.57 150.23"><defs><style>.cls-1{fill:#7b7c7a;}.cls-1,.cls-2,.cls-3{stroke-width:0px;}.cls-2{fill:#56af31;}.cls-3{fill:#1275ac;}</style></defs><polygon class="cls-3" points="369.64 11.93 369.64 111.26 381.57 111.26 381.57 0 270.31 0 270.31 11.93 369.64 11.93 369.64 11.93"/><polygon class="cls-3" points="345.76 35.8 345.76 111.26 357.7 111.26 357.7 23.87 270.31 23.87 270.31 35.8 345.76 35.8 345.76 35.8"/><polygon class="cls-3" points="323.61 46.86 335.55 46.86 335.55 111.25 323.61 111.25 323.61 46.86 323.61 46.86"/><path class="cls-3" d="m285.85,93.2l-4.93,18.13h-10.8l18.37-63.96h13.36l18.63,63.96h-11.31l-5.19-18.13h-18.12Zm16.41-8.83l-4.51-15.75c-1.1-3.89-2.04-8.26-2.89-11.96h-.17c-.85,3.7-1.79,8.16-2.72,11.96l-4.42,15.75h14.71Z"/><path class="cls-1" d="m37.36,48.99l-1.18,10.45c-4.18-1.82-8.48-2.73-12.91-2.73-2.67,0-4.88.61-6.64,1.82-2.24,1.52-3.36,3.85-3.36,7,0,2.85,2.39,5.3,7.18,7.36,7.7,3.21,12.18,5.24,13.45,6.09,4.78,3.34,7.18,8.06,7.18,14.18,0,6.55-2.36,11.48-7.09,14.82-4.18,2.91-9.76,4.36-16.73,4.36-4.18,0-9.61-.82-16.27-2.45l1.18-11.46c4.79,2.61,9.57,3.91,14.36,3.91,2.79,0,5.27-.64,7.45-1.91,2.55-1.57,3.82-3.67,3.82-6.27,0-3.21-2.39-5.88-7.18-8-8.3-3.69-12.79-5.76-13.45-6.18-4.79-3.27-7.18-7.91-7.18-13.91,0-6.61,2.3-11.6,6.91-15,3.94-2.91,9.03-4.36,15.27-4.36,5.57,0,10.63.76,15.18,2.27"/><path class="cls-1" d="m83.44,64.9l-1.09,9.63c-2.48-1.15-5.24-1.73-8.27-1.73-3.76,0-6.76,1.36-9,4.09-2.24,2.73-3.36,6.3-3.36,10.73s1.03,8.18,3.09,10.91c2.24,2.91,5.42,4.36,9.54,4.36,2.91,0,6.03-.73,9.36-2.18l.55,10.09c-3.33,1.03-7.4,1.55-12.18,1.55-7.45,0-13.21-2.33-17.27-7-3.88-4.42-5.82-10.33-5.82-17.72s1.94-12.76,5.82-17.18c4.12-4.73,9.73-7.09,16.82-7.09,4.42,0,8.36.52,11.82,1.55"/><path class="cls-1" d="m98.53,77.35l-.37-10.45c5.15-2.36,10.58-3.55,16.27-3.55,7.09,0,12.23,1.56,15.41,4.68,3.18,3.12,4.77,8.13,4.77,15.04v6c0,3.15.06,7.06.18,11.72.06,3.27.24,6.76.55,10.45h-10.72c-.12-.61-.3-2.94-.55-7h-.18c-1.39,2.49-3.43,4.45-6.09,5.91-2.67,1.45-5.45,2.18-8.36,2.18-4.42,0-8.18-1.21-11.27-3.64-3.39-2.61-5.09-6.03-5.09-10.27,0-6.3,2.67-10.76,8-13.36,3.69-1.82,8.94-2.72,15.72-2.72h6.73c0-3.7-.83-6.3-2.5-7.82-1.67-1.51-4.35-2.27-8.04-2.27-5.15,0-9.97,1.7-14.45,5.09m6.18,20.36c0,3.82,2.57,5.73,7.72,5.73,4.85,0,8.18-2.24,10-6.73.72-1.88,1.09-4.24,1.09-7.09h-5.27c-9.03,0-13.54,2.69-13.54,8.09"/><path class="cls-1" d="m147.89,111.26v-63.45h17.36c24.42,0,36.63,10.58,36.63,31.73s-12.21,31.72-36.63,31.72h-17.36Zm12.72-53.45v43.45h7.09c5.64,0,10.45-1.91,14.45-5.73,4.3-4.06,6.45-9.39,6.45-16s-2.15-11.97-6.45-16.09c-4-3.76-8.82-5.64-14.45-5.64h-7.09Z"/><path class="cls-1" d="m247.42,48.99l-1.18,10.45c-4.18-1.82-8.48-2.73-12.91-2.73-2.67,0-4.88.61-6.64,1.82-2.24,1.52-3.36,3.85-3.36,7,0,2.85,2.39,5.3,7.18,7.36,7.69,3.21,12.18,5.24,13.45,6.09,4.79,3.34,7.18,8.06,7.18,14.18,0,6.55-2.36,11.48-7.09,14.82-4.18,2.91-9.76,4.36-16.73,4.36-4.18,0-9.61-.82-16.27-2.45l1.18-11.46c4.79,2.61,9.57,3.91,14.36,3.91,2.79,0,5.27-.64,7.45-1.91,2.55-1.57,3.82-3.67,3.82-6.27,0-3.21-2.39-5.88-7.18-8-8.3-3.69-12.79-5.76-13.45-6.18-4.79-3.27-7.18-7.91-7.18-13.91,0-6.61,2.3-11.6,6.91-15,3.94-2.91,9.03-4.36,15.27-4.36,5.57,0,10.63.76,15.18,2.27"/><path class="cls-1" d="m254.2,106.24c0-3.45,2.4-5.93,5.7-5.93s5.7,2.4,5.7,5.93-2.25,5.93-5.7,5.93-5.7-2.55-5.7-5.93h0Z"/><path class="cls-3" d="m1.2,149.86v-21.82h5.97c8.4,0,12.6,3.64,12.6,10.91s-4.2,10.91-12.6,10.91H1.2Zm4.38-18.38v14.94h2.44c1.94,0,3.6-.66,4.97-1.97,1.48-1.4,2.22-3.23,2.22-5.5s-.74-4.11-2.22-5.53c-1.37-1.29-3.03-1.93-4.97-1.93h-2.44Z"/><path class="cls-3" d="m23.39,149.86v-21.82h4.72c3.35,0,5.66.23,6.91.69,2.25.81,3.37,2.55,3.37,5.22,0,1.31-.4,2.44-1.22,3.37-.81.94-1.91,1.5-3.28,1.69v.06c.96.09,1.73.83,2.31,2.25l3.5,8.53h-4.87l-2.63-6.82c-.33-.85-.69-1.42-1.06-1.72-.44-.36-1.09-.53-1.97-.53h-1.41v9.06h-4.38Zm4.38-18.38v5.88h1.44c3.08,0,4.62-1.01,4.62-3.03,0-1.17-.5-1.97-1.5-2.41-.67-.29-1.71-.44-3.12-.44h-1.44Z"/><polygon class="cls-3" points="42.86 149.86 42.86 128.04 55.74 128.04 55.74 131.48 47.24 131.48 47.24 136.86 55.02 136.86 55.02 140.29 47.24 140.29 47.24 146.42 55.8 146.42 55.8 149.86 42.86 149.86 42.86 149.86"/><path class="cls-3" d="m72.37,128.45l-.41,3.6c-1.44-.63-2.92-.94-4.44-.94-.92,0-1.68.21-2.28.62-.77.52-1.16,1.33-1.16,2.41,0,.98.82,1.83,2.47,2.53,2.65,1.1,4.19,1.8,4.62,2.1,1.65,1.14,2.47,2.77,2.47,4.87,0,2.25-.81,3.95-2.44,5.1-1.44,1-3.36,1.5-5.75,1.5-1.44,0-3.3-.28-5.59-.84l.41-3.94c1.65.9,3.29,1.34,4.94,1.34.96,0,1.81-.22,2.56-.66.87-.54,1.31-1.26,1.31-2.16,0-1.11-.83-2.02-2.47-2.75-2.85-1.27-4.4-1.98-4.63-2.13-1.65-1.12-2.47-2.72-2.47-4.78,0-2.27.79-3.99,2.38-5.16,1.35-1,3.1-1.5,5.25-1.5,1.91,0,3.65.26,5.22.78"/><path class="cls-3" d="m77.61,149.86v-21.82h5.97c8.4,0,12.6,3.64,12.6,10.91s-4.2,10.91-12.6,10.91h-5.97Zm4.38-18.38v14.94h2.44c1.94,0,3.6-.66,4.97-1.97,1.48-1.4,2.22-3.23,2.22-5.5s-.74-4.11-2.22-5.53c-1.38-1.29-3.03-1.93-4.97-1.93h-2.44Z"/><polygon class="cls-3" points="100.18 149.86 100.18 128.04 113.06 128.04 113.06 131.48 104.56 131.48 104.56 136.86 112.34 136.86 112.34 140.29 104.56 140.29 104.56 146.42 113.12 146.42 113.12 149.86 100.18 149.86 100.18 149.86"/><polygon class="cls-3" points="117.34 149.86 117.34 128.04 122.74 128.04 131.09 144.36 131.09 128.04 135.28 128.04 135.28 149.86 129.91 149.86 121.53 133.54 121.53 149.86 117.34 149.86 117.34 149.86"/><polygon class="cls-2" points="147.72 149.86 147.72 128.04 152.09 128.04 152.09 146.42 160.56 146.42 160.56 149.86 147.72 149.86 147.72 149.86"/><polygon class="cls-2" points="163.19 149.86 163.19 128.04 176.07 128.04 176.07 131.48 167.56 131.48 167.56 136.86 175.35 136.86 175.35 140.29 167.56 140.29 167.56 146.42 176.13 146.42 176.13 149.86 163.19 149.86 163.19 149.86"/><polygon class="cls-2" points="180.35 128.04 184.72 128.04 184.72 149.86 180.35 149.86 180.35 128.04 180.35 128.04"/><path class="cls-2" d="m189.19,149.86v-21.82h5.53c6.06,0,9.1,2.2,9.1,6.6,0,2.4-.81,4.19-2.44,5.37-1.44,1.04-3.43,1.56-5.97,1.56h-1.84v8.28h-4.38Zm4.38-18.38v6.66h1.53c2.77,0,4.16-1.08,4.16-3.25,0-2.27-1.38-3.41-4.16-3.41h-1.53Z"/><polygon class="cls-2" points="204.76 149.86 204.76 146.29 215.01 131.48 205.16 131.48 205.16 128.04 219.66 128.04 219.66 131.61 209.32 146.42 219.88 146.42 219.88 149.86 204.76 149.86 204.76 149.86"/><polygon class="cls-2" points="223.32 128.04 227.7 128.04 227.7 149.86 223.32 149.86 223.32 128.04 223.32 128.04"/><path class="cls-2" d="m249.89,128.58l-.28,3.69c-1.67-.77-3.54-1.16-5.63-1.16-2.48,0-4.44.76-5.88,2.28-1.36,1.44-2.03,3.31-2.03,5.62s.67,4.14,2,5.6c1.33,1.46,3.14,2.19,5.41,2.19,1.08,0,2.04-.1,2.87-.31v-5.69h-4.63v-3.44h8.81v11.75c-2.77.75-5.12,1.12-7.06,1.12-3.67,0-6.54-.9-8.63-2.69-2.23-1.9-3.34-4.64-3.34-8.22s1.06-6.58,3.19-8.61c2.12-2.03,5.05-3.05,8.78-3.05,2.25,0,4.38.3,6.41.91"/></svg>