<svg xml:space="preserve" xmlns="http://www.w3.org/2000/svg" viewBox="0 0 256.8 50.50306748466258" style="max-height: 500px" width="256.8" height="50.50306748466258"><style>.st2{fill:#555}</style><g id="Ebene_2"><g id="Englisch"><path class="st2" d="M33.6 49h-2.3c-.7 0-1.4-.3-1.9-.9-.4-.5-.7-1.1-.7-1.8V2.6c0-.6.3-1.3.7-1.7.5-.6 1.2-.9 1.9-.9h2.3c.7 0 1.5.3 1.9.9.4.5.6 1.1.6 1.7v43.8c0 .6-.2 1.3-.6 1.7-.4.6-1.1.9-1.9.9M14.1 49h-2.3c-.7 0-1.4-.3-1.9-.9-.4-.5-.7-1.1-.7-1.8V7.5H2.6c-.6 0-1.3-.3-1.7-.7C.3 6.3 0 5.6 0 4.9V2.6c0-.8.3-1.5.9-2C1.4.2 2 0 2.6 0h20.5c.6 0 1.3.2 1.7.6.6.5.9 1.2.9 1.9v2.3c0 .7-.3 1.4-.9 1.9-.5.4-1.1.7-1.8.6h-6.5v38.9c0 .6-.2 1.3-.6 1.8-.4.7-1.1 1-1.8 1M54.1 49h-9.6c-.7 0-1.4-.3-1.9-.9-.4-.5-.7-1.1-.7-1.8V2.6c0-.8.3-1.5.9-2 .5-.4 1.1-.6 1.7-.6H52c1.7 0 3.3.1 5 .3 1.3.1 2.7.5 3.8 1.2 1.8 1 3.2 2.6 4 4.5.9 2 1.3 4.1 1.3 6.3 0 3.6-.4 6.2-1.2 7.9-.4.9-1 1.7-1.7 2.4l-.4.3c1.3.8 2.3 1.9 2.9 3.3 1 2.4 1.4 4.9 1.3 7.5 0 1.8-.1 3.5-.3 5.3s-.8 3.5-1.8 5c-1 1.6-2.3 2.9-4 3.7-2 .9-4.4 1.4-6.8 1.3m-4.7-7.4h4.4q1.35 0 2.7-.3c.7-.2 1.2-.6 1.7-1.1.6-.7.9-1.5 1.1-2.3.3-1.5.5-3 .4-4.4 0-1.2-.1-2.3-.5-3.4-.2-.7-.7-1.3-1.2-1.8-.6-.5-1.4-.8-2.2-.9-1.1-.2-2.3-.3-3.4-.3h-3zm0-22h3.1c.9 0 1.8-.1 2.8-.2.7-.1 1.3-.3 1.8-.7.6-.5 1-1.2 1.2-1.9.4-1.4.6-2.8.5-4.2.1-1-.1-2-.5-3-.3-.6-.7-1.1-1.2-1.4-.6-.4-1.3-.6-2-.6-.9-.1-2-.1-3.1-.1h-2.6zM85.1 10.8c0 .1 0 .2-.1.3s-.2.1-.3.1h-3.8c-.1 0-.2 0-.2-.1-.1-.1-.1-.2-.1-.3V.5c0-.1 0-.2.1-.2.1-.1.2-.1.2-.1h.5c.1 0 .2 0 .3.1s.1.1.1.2v9.4h3c.1 0 .2 0 .2.1.1.1.1.2.1.3zM91.7 10.8c0 .1 0 .2-.1.3s-.2.1-.2.1h-4.1c-.1 0-.2-.1-.2-.1-.1-.1-.1-.2-.1-.3V.5c0-.1 0-.2.1-.2.1-.1.2-.1.3-.1h4c.1 0 .2 0 .3.1s.1.2.1.3V1c0 .1 0 .2-.1.3s-.2.1-.3.1h-3.2v3.5h2.6c.1 0 .2 0 .3.1s.1.2.1.3v.5c0 .1 0 .2-.1.3s-.2.1-.3.1h-2.6V10h3.2c.1 0 .2 0 .2.1.1.1.1.2.1.3zM94.5 11.1c-.1 0-.2 0-.3-.1s-.1-.2-.1-.3V.5c0-.1 0-.2.1-.2.1-.1.2-.1.3-.1h.6c.1 0 .2 0 .3.1s.1.1.1.2v10.2c0 .1 0 .2-.1.3s-.2.1-.3.1zM100.5.2c.4 0 .8 0 1.1.1.3 0 .6.1.8.2.4.2.7.5.8.9.2.4.3.9.3 1.4 0 .6 0 1.2-.2 1.7-.1.2-.2.3-.3.5-.1.1-.3.2-.4.3.4.1.8.4 1 .8.2.5.3 1.1.3 1.6 0 .4 0 .8-.1 1.2 0 .4-.2.8-.4 1.1s-.5.6-.8.8q-.75.3-1.5.3h-2.3c-.1 0-.2 0-.3-.1s-.1-.2-.1-.3V.5c0-.1 0-.2.1-.3s.2-.1.2-.1zm-.8 4.6h1.7c.2 0 .4-.1.5-.2.2-.1.3-.3.4-.6s.1-.7.1-1.1c0-.3 0-.5-.1-.8-.1-.2-.2-.3-.4-.4s-.4-.2-.6-.2h-1.6zm0 1.2v3.9h1.3c.2 0 .5 0 .7-.1s.4-.2.5-.3q.3-.3.3-.6c.1-.4.1-.7.1-1.1 0-.3 0-.6-.1-.9-.1-.2-.2-.4-.4-.5l-.6-.3c-.3 0-.6-.1-.8-.1zM107.3 2.1l.2 3.3v5.4c0 .1 0 .2-.1.3s-.2.1-.3.1h-.5c-.1 0-.2 0-.2-.1-.1-.1-.1-.2-.1-.3V.5c0-.1 0-.2.1-.2.1-.1.2-.1.2-.1h.9c.1 0 .2 0 .2.1s.1.1.1.2l2.9 8.7-.2-3.1V.6c0-.1 0-.2.1-.3s.2-.2.3-.1h.5c.1 0 .2 0 .3.1s.1.2.1.3v10.2c0 .1 0 .2-.1.2-.1.1-.2.1-.3.1h-.9c-.1 0-.2 0-.2-.1s-.1-.2-.1-.2zM115.3 11.1c-.1 0-.2 0-.2-.1-.1-.1-.1-.2-.1-.3V.5c0-.1 0-.2.1-.2.1-.1.2-.1.3-.1h.5c.1 0 .2 0 .3.1s.1.1.1.2v10.2c0 .1 0 .2-.1.3s-.2.1-.3.1zM118.8 11.1c-.1 0-.2 0-.3-.1 0-.1-.1-.2-.1-.3V10c0-.1 0-.2.1-.3 0-.1.1-.2.1-.3l3.5-7.9h-3.3c-.1 0-.2 0-.2-.1-.1-.1-.1-.2-.1-.3V.6c0-.1 0-.2.1-.3s.2-.1.2-.1h4.2c.1 0 .2 0 .3.1s.1.2.1.2v1l-.1.1-3.6 8.2h3.6c.1 0 .2 0 .3.1s.1.2.1.3v.5c0 .1 0 .2-.1.3s-.2.1-.3.1zM130.4 11.1c-.1 0-.2 0-.3-.1s-.1-.2-.1-.3V.5c0-.1 0-.2.1-.2.1-.1.2-.1.3-.1h.5c.1 0 .2 0 .3.1s.1.1.1.2v10.2c0 .1 0 .2-.1.3s-.2.1-.3.1zM135.4 2.1l.2 3.3v5.4c0 .1 0 .2-.1.3s-.2.1-.3.1h-.5c-.1 0-.2 0-.3-.1s-.1-.2-.1-.3V.5c0-.1 0-.2.1-.2.1-.1.2-.1.3-.1h.9c.1 0 .2 0 .2.1s.1.2.1.2l2.9 8.7-.2-3.1V.6c0-.1 0-.2.1-.3s.2-.1.3-.1h.5c.1 0 .2 0 .3.1s.1.2.1.3v10.2c0 .1 0 .2-.1.2-.1.1-.2.1-.3.1h-.9c-.1 0-.2 0-.2-.1-.1-.1-.1-.2-.1-.2zM147.1 5.7c0 .1 0 .2-.1.3s-.2.1-.2.1h-2.6v4.7c0 .1 0 .2-.1.3s-.2.1-.3.1h-.5c-.1 0-.2 0-.2-.1-.1-.1-.1-.2-.1-.3V.5c0-.1 0-.2.1-.2.1-.1.2-.1.2-.1h4c.1 0 .2 0 .3.1s.1.2.1.3V1c0 .1 0 .2-.1.3s-.2.1-.3.1h-3.1v3.5h2.6c.1 0 .2 0 .2.1.1.1.1.2.1.3zM151.9 11.3c-.5 0-1-.1-1.4-.3-.3-.2-.6-.4-.8-.7s-.3-.6-.4-.9-.1-.5-.1-.8c-.1-1-.1-2-.1-2.9s0-1.9.1-2.9c0-.3 0-.5.1-.8s.2-.6.4-.9.5-.5.8-.7c.9-.4 1.9-.4 2.8 0 .3.2.6.4.8.7s.3.6.4.9.1.5.1.8c.1 1 .1 2 .1 2.9s0 1.9-.1 2.9c0 .3 0 .5-.1.8s-.2.6-.4.9-.5.5-.8.7c-.4.2-.9.3-1.4.3m0-10c-.3 0-.5 0-.7.2-.2.1-.3.3-.4.4-.1.2-.2.4-.2.6s-.1.5-.1.7c-.1.9-.1 1.7-.1 2.4s0 1.6.1 2.4c0 .2 0 .5.1.7 0 .2.1.4.2.6s.3.3.4.4c.2.1.5.2.7.2s.5 0 .7-.2c.2-.1.3-.3.4-.4.1-.2.2-.4.2-.6s.1-.5.1-.7c0-.9.1-1.7.1-2.4s0-1.6-.1-2.4c0-.2 0-.5-.1-.7 0-.2-.1-.4-.2-.6s-.2-.3-.4-.4c-.2-.2-.4-.2-.7-.2M162.5 10.8v.2c-.1.1-.2.1-.3.1h-.6c-.1 0-.2 0-.2-.1-.1-.1-.1-.2-.2-.3L159.8 6h-1.4v4.8c0 .1 0 .2-.1.2-.1.1-.2.1-.3.1h-.5c-.1 0-.2 0-.3-.1s-.1-.2-.1-.2V.6c0-.1 0-.2.1-.2.1-.1.2-.1.2-.1h1.9c.5 0 1 0 1.5.2.4.1.8.4 1 .7s.3.6.4.9c.1.4.1.8.1 1.2 0 .6-.1 1.2-.3 1.7-.2.4-.6.7-1.1.9zm-4.1-6h1.7c.2 0 .4-.1.5-.2s.2-.1.2-.2c.1-.1.1-.2.2-.3 0-.1.1-.2.1-.4v-.5c0-.3 0-.7-.1-1-.1-.2-.2-.4-.4-.5-.1 0-.2-.1-.2-.1h-2zM166.1 2l.1 4.8v4c0 .1 0 .2-.1.3s-.2.1-.3.1h-.5c-.1 0-.2 0-.2-.1-.1-.1-.1-.2-.1-.3V.5c0-.1 0-.2.1-.2.1-.1.2-.1.3-.1h1c.1 0 .2 0 .2.1.1.1.1.2.1.3l1.2 4.9.3 1.7h.1l.3-1.7 1.1-4.9c0-.2.2-.3.4-.3h1c.1 0 .2 0 .3.1s.1.1.1.2v10.2c0 .1 0 .2-.1.3s-.2.1-.3.1h-.5c-.1 0-.2 0-.2-.1-.1-.1-.1-.2-.1-.3v-4l.2-4.8h-.1l-1.5 6.8c0 .1 0 .2-.1.3s-.2.1-.2.1h-.5c-.1 0-.2 0-.2-.1-.1-.1-.1-.2-.1-.3zM176.8.2c.2 0 .3.1.4.4l2 10.2c0 .1 0 .2-.1.2-.1.1-.2.1-.2.1h-.6c-.2 0-.3-.1-.4-.3l-.4-1.8h-2.1l-.3 1.8c0 .2-.2.3-.4.3h-.6c-.1 0-.3-.1-.3-.2v-.1L175.9.6c0-.1 0-.2.1-.2.1-.1.2-.1.2-.1zm.5 7.5-.6-3.8-.2-2.1h-.1l-.2 2.1-.6 3.8zM185.6 1c0 .1 0 .2-.1.3s-.2.1-.3.1h-1.7v9.3c0 .1 0 .2-.1.3s-.2.1-.3.1h-.5c-.1 0-.2 0-.3-.1s-.1-.2-.1-.3V1.4h-1.8c-.1 0-.2 0-.2-.1-.1-.1-.1-.2-.1-.2V.6c0-.2.2-.4.4-.4h4.8c.1 0 .2 0 .3.1s.1.2.1.3V1zM188.1 11.1c-.1 0-.2 0-.2-.1-.1-.1-.1-.2-.1-.3V.5c0-.1 0-.2.1-.2.1-.1.2-.1.2-.1h.5c.1 0 .2 0 .3.1s.1.1.1.2v10.2c0 .1 0 .2-.1.3s-.2.1-.3.1zM194.4 11.3c-.5 0-.9-.1-1.3-.3-.3-.2-.6-.4-.8-.7s-.3-.6-.4-.9-.1-.5-.1-.8c-.1-1-.1-2-.1-2.9s0-1.9.1-2.9c0-.3 0-.5.1-.8.1-.7.5-1.3 1.2-1.6.9-.4 1.9-.4 2.8 0 .3.2.6.4.8.7s.3.6.4.9.1.5.1.8c.1 1 .1 2 .1 2.9s0 1.9-.1 2.9c0 .3 0 .5-.1.8s-.2.6-.4.9-.5.5-.8.7q-.75.3-1.5.3m0-10c-.2 0-.5 0-.7.2-.2.1-.3.3-.4.4-.1.2-.2.4-.2.6s-.1.5-.1.7c0 .9-.1 1.7-.1 2.4 0 .8 0 1.6.1 2.4 0 .2 0 .5.1.7 0 .2.1.4.2.6.2.4.7.7 1.1.6.2 0 .5 0 .7-.2.2-.1.3-.3.4-.4.1-.2.2-.4.2-.6s.1-.5.1-.7c0-.9 0-1.7.1-2.4s0-1.6-.1-2.4c0-.2 0-.5-.1-.7 0-.2-.1-.4-.2-.6s-.2-.3-.4-.4c-.2-.2-.4-.2-.7-.2M200.6 2.1l.2 3.3v5.4c0 .1 0 .2-.1.3s-.2.1-.3.1h-.5c-.1 0-.2 0-.2-.1-.1-.1-.1-.2-.1-.3V.5c0-.1 0-.2.1-.2.1-.1.2-.1.2-.1h.9c.1 0 .2 0 .2.1s.1.1.1.2l2.9 8.7V.3c.1-.1.2-.1.3-.1h.5c.1 0 .2 0 .3.1s.1.2.1.3v10.2c0 .1 0 .2-.1.2-.1.1-.2.1-.3.1h-.9c-.1 0-.2 0-.2-.1-.1-.1-.1-.2-.1-.2zM217.1 3q0 .3-.3.3h-.6c-.1 0-.2 0-.3-.1s-.1-.2-.1-.2v-.2c0-.2 0-.4-.1-.5 0-.2-.1-.3-.2-.5-.1-.1-.2-.3-.4-.3-.2-.1-.4-.1-.6-.1-.3 0-.5 0-.7.1s-.3.2-.4.4-.2.4-.2.6-.1.5-.1.7c0 .5-.1.9-.1 1.3v2.4c0 .4 0 .8.1 1.3 0 .2 0 .5.1.7 0 .2.1.4.2.6s.3.3.4.5c.2.1.5.2.7.2s.4-.1.6-.2.3-.2.4-.4.2-.4.2-.6.1-.5.1-.7v-.7c0-.1 0-.2.1-.3s.2-.1.3-.1h.5q.3 0 .3.3v1.1c0 .3 0 .5-.1.8s-.2.6-.4.8c-.2.3-.5.5-.8.7-.4.2-.9.3-1.4.3-.5.1-1 0-1.4-.3-.3-.2-.6-.4-.8-.7s-.3-.6-.4-.9c-.1-.2-.1-.5-.1-.7 0-.5-.1-1-.1-1.5V4.2c0-.5 0-1 .1-1.5 0-.3.1-.5.1-.8.1-.3.2-.6.4-.9s.5-.5.8-.7q.75-.3 1.5-.3c.8-.1 1.5.3 2 .9.2.2.3.5.4.8 0 .2.1.5.1.7zM224.1 10.8c0 .1 0 .2-.1.2-.1.1-.2.1-.3.1h-4.1c-.1 0-.2 0-.3-.1s-.1-.2-.1-.3V.5c0-.1 0-.2.1-.2.1-.1.2-.1.3-.1h4c.1 0 .2 0 .3.1s.1.2.1.3V1c0 .1 0 .2-.1.3s-.2.1-.3.1h-3.1v3.5h2.7c.1 0 .2 0 .2.1.1.1.1.2.1.3v.5c0 .1 0 .2-.1.3s-.2.1-.2.1h-2.7V10h3.2c.1 0 .2 0 .3.1s.1.2.1.3zM227.3 2.1l.2 3.3v5.4c0 .1 0 .2-.1.3s-.2.1-.3.1h-.5c-.1 0-.2 0-.2-.1-.1-.1-.1-.2-.1-.3V.5c0-.1 0-.2.1-.2.1-.1.2-.1.2-.1h.9c.1 0 .2 0 .2.1s.1.1.1.2l2.9 8.7-.2-3.1V.6c0-.1 0-.2.1-.3s.2-.1.3-.1h.5c.1 0 .2 0 .2.1.1.1.1.2.1.3v10.2c0 .1 0 .2-.1.2-.1.1-.2.1-.2.1h-.9c-.1 0-.2 0-.2-.1-.1-.1-.1-.2-.1-.2zM239.4 1c0 .1 0 .2-.1.3s-.2.1-.3.1h-1.7v9.3c0 .1 0 .2-.1.3s-.2.1-.3.1h-.5c-.1 0-.2 0-.2-.1-.1-.1-.1-.2-.1-.3V1.4h-1.8c-.1 0-.2 0-.2-.1-.1-.1-.1-.2-.1-.3V.6c0-.1 0-.2.1-.3s.2-.1.2-.1h4.8c.1 0 .2 0 .3.1s.1.2.1.3zM246.8 10.8v.2c0 .1-.1.1-.3.1h-.6c-.1 0-.2 0-.2-.1-.1-.1-.1-.2-.1-.3L244 6h-1.4v4.8c0 .1 0 .2-.1.2-.1.1-.2.1-.3.1h-.5c-.1 0-.2 0-.3-.1s-.1-.2-.1-.2V.6c0-.1 0-.2.1-.2.1-.1.1-.1.2-.1h1.9c.5 0 1 0 1.5.2.4.1.8.3 1 .7.2.3.3.6.4.9.1.4.1.8.1 1.2 0 .6-.1 1.2-.3 1.7-.2.4-.6.7-1.1.9zm-4.2-6h1.7c.2 0 .4-.1.5-.2s.2-.1.2-.2c.1-.1.1-.2.1-.3s.1-.2.1-.4v-.5c0-.3 0-.7-.1-1-.1-.2-.2-.4-.4-.5-.1 0-.2-.1-.2-.1h-2.1zM253.9 10.8c0 .1 0 .2-.1.3s-.2.1-.2.1h-4.1c-.1 0-.2 0-.2-.1-.1-.1-.1-.2-.1-.3V.5c0-.1 0-.2.1-.2.1-.1.2-.1.2-.1h4c.1 0 .2 0 .3.1s.1.2.1.3V1c0 .1 0 .2-.1.3s-.2.1-.3.1h-3.1v3.5h2.7c.1 0 .2 0 .3.1s.1.2.1.3v.5c0 .1 0 .2-.1.3s-.2.1-.3.1h-2.7V10h3.2c.1 0 .2 0 .3.1s.1.2.1.3zM84.7 24.5c0 .1 0 .2-.1.3s-.2.1-.2.1h-2.7v4.7c0 .1 0 .2-.1.3s-.2.1-.3.1h-.5c-.1 0-.2 0-.3-.1s-.1-.2-.1-.3V19.3c0-.1 0-.2.1-.2.1-.1.2-.1.3-.1h4c.1 0 .2 0 .2.1.1.1.1.2.1.3v.5c0 .1 0 .2-.1.2-.1.1-.2.1-.2.1h-3.1v3.4h2.6c.1 0 .2 0 .3.1s.1.2.1.3zM89.6 30.1c-.5 0-1-.1-1.4-.3-.3-.2-.6-.4-.8-.7s-.3-.6-.4-.9-.1-.5-.1-.8c-.1-1-.1-2-.1-2.9s0-1.9.1-2.9c0-.3.1-.5.1-.8.1-.3.2-.6.4-.9s.5-.5.8-.7c.9-.4 1.9-.4 2.8 0 .3.2.6.4.8.7s.3.6.4.9.1.5.1.8c.1 1 .1 2 .1 2.9s0 1.9-.1 2.9c0 .3 0 .5-.1.8s-.2.6-.4.9-.5.5-.8.7c-.4.2-.9.3-1.4.3m0-10c-.2 0-.5 0-.7.2-.2.1-.3.3-.4.4-.1.2-.2.4-.2.6s-.1.5-.1.7c0 .8-.1 1.7-.1 2.4s0 1.6.1 2.4c0 .2 0 .5.1.7 0 .2.1.4.2.6s.2.3.4.4c.4.2 1 .2 1.4 0 .2-.1.3-.3.4-.4.1-.2.2-.4.2-.6s.1-.5.1-.7c0-.8 0-1.7.1-2.4.1-.8 0-1.6 0-2.5 0-.2 0-.5-.1-.7 0-.2-.1-.4-.2-.6s-.2-.3-.4-.4c-.3-.1-.5-.2-.8-.1M100.2 29.6v.2c-.1.1-.2.1-.3.1h-.6c-.1 0-.2 0-.2-.1-.1-.1-.1-.2-.2-.3l-1.5-4.8H96v4.8c0 .1 0 .2-.1.2-.1.1-.2.1-.3.1h-.5c-.1 0-.2 0-.2-.1-.1-.1-.1-.2-.1-.2V19.3c0-.1 0-.2.1-.3h2.1999999999999997c.5 0 1 0 1.5.1.4.1.8.3 1 .7.2.3.3.6.4.9.1.4.1.8.1 1.2 0 .6-.1 1.2-.3 1.7-.2.4-.6.7-1.1.9zm-4.1-6h1.7c.2 0 .4-.1.5-.2s.2-.1.2-.2c.1-.1.1-.2.1-.3s.1-.2.1-.4V22c0-.3 0-.7-.1-1-.1-.2-.2-.4-.4-.5l-.2-.1h-2v3.2zM111.5 26.9c.1.9-.2 1.7-.7 2.4-.5.5-1.3.8-2 .8-.5 0-.9-.1-1.3-.3-.3-.2-.6-.4-.8-.7s-.4-.7-.5-1c-.1-.4-.1-.8-.1-1.3v-.2c0-.1 0-.2.1-.2.1-.1.2-.1.3-.1h.5c.1 0 .2 0 .2.1.1.1.1.2.1.2v.2c0 .3 0 .7.1 1 .1.2.2.5.3.6.1.2.3.3.5.3.2.1.4.1.6.1.4 0 .8-.1 1.1-.4.3-.4.5-.9.4-1.4 0-.4-.1-.7-.3-1s-.5-.6-.8-.8-.6-.5-1-.7-.7-.5-1-.7c-.3-.3-.6-.6-.8-1-.3-.7-.4-1.6-.1-2.3.1-.3.3-.6.5-.8s.5-.4.8-.6c.4-.1.7-.2 1.1-.2s.7.1 1.1.2c.3.1.6.3.8.6.2.2.3.5.4.8s.2.6.2.9v.1c0 .1 0 .2-.1.2-.1.1-.2.1-.3.1h-.5c-.1 0-.2 0-.2-.1-.1-.1-.1-.1-.1-.2 0-.3-.1-.7-.3-.9-.2-.3-.6-.4-.9-.4-.2 0-.4 0-.6.1-.3.1-.6.4-.6.7 0 .2-.1.3-.1.5 0 .4.1.7.3 1s.5.6.8.8.6.5 1 .7.7.5 1 .7c.3.3.6.6.8 1-.1.4.1.8.1 1.2M118.6 21.8c0 .1 0 .2-.1.2-.1.1-.2.1-.3.1h-.5q-.3 0-.3-.3v-.3c0-.2 0-.4-.1-.6 0-.2-.1-.3-.2-.5s-.2-.3-.4-.3c-.2-.1-.4-.1-.6-.1-.3 0-.5 0-.7.1s-.3.2-.4.4-.2.4-.2.6-.1.5-.1.7c0 .5-.1.9-.1 1.3v2.4c0 .4 0 .8.1 1.3 0 .2 0 .5.1.7 0 .2.1.4.2.6s.3.4.4.5c.4.2.9.2 1.4 0 .2-.1.3-.2.4-.4s.2-.4.2-.6.1-.5.1-.7v-.5c0-.1 0-.2.1-.3s.2-.1.3-.1h.5c.2 0 .3.1.4.3v1.1c0 .3 0 .5-.1.8s-.2.6-.4.8c-.2.3-.5.5-.8.7-.4.2-.9.3-1.4.3s-.9-.1-1.4-.3c-.3-.2-.6-.4-.8-.7s-.3-.5-.4-.8c-.1-.2-.1-.5-.1-.7 0-.5-.1-1-.1-1.5v-3c0-.5 0-1 .1-1.5 0-.3.1-.5.1-.8.1-.7.6-1.3 1.2-1.6q.75-.3 1.5-.3.6 0 1.2.3c.3.2.5.4.7.6s.3.5.4.8c.1.2.1.5.1.7zM121.5 29.9c-.1 0-.2 0-.2-.1-.1-.1-.1-.2-.1-.3V19.3c0-.1 0-.2.1-.2.1-.1.2-.1.2-.1h.6c.1 0 .2 0 .3.1s.1.2.1.2v10.2c0 .1 0 .2-.1.3s-.2.1-.3.1zM130.3 29.6c0 .1 0 .2-.1.2-.1.1-.2.1-.2.1h-4.1c-.1 0-.2 0-.3-.1s-.1-.2-.1-.3V19.3c0-.1 0-.2.1-.2.1-.1.2-.1.3-.1h4c.1 0 .2 0 .3.1s.1.2.1.3v.5c0 .1 0 .2-.1.2-.1.1-.2.1-.3.1h-3.1v3.4h2.6c.1 0 .2 0 .3.1s.1.2.1.3v.5c0 .1 0 .2-.1.2-.1.1-.2.1-.3.1h-2.6v3.8h3.2c.1 0 .2 0 .2.1.1.1.1.2.1.3zM133.5 20.9l.2 3.3v5.4c0 .1 0 .2-.1.3s-.2.1-.3.1h-.5c-.1 0-.2 0-.3-.1s-.1-.2-.1-.3V19.3c0-.1 0-.2.1-.2.1-.1.2-.1.3-.1h.9c.1 0 .2 0 .2.1s.1.2.1.2l3 8.7-.2-3.1v-5.5c0-.1 0-.2.1-.3s.2-.1.3-.1h.5c.1 0 .2 0 .3.1s.1.2.1.3v10.2c0 .1 0 .2-.1.2-.1.1-.2.1-.3.1h-.9c-.1 0-.2 0-.2-.1-.1-.1-.1-.2-.1-.2zM145.8 21.8c0 .1 0 .2-.1.2-.1.1-.2.1-.3.1h-.4c-.1 0-.2 0-.2-.1-.1-.1-.1-.2-.1-.2v-.2c0-.2 0-.4-.1-.6 0-.2-.1-.3-.2-.5-.1-.1-.2-.3-.4-.3-.2-.1-.4-.1-.6-.1-.3 0-.5 0-.7.1s-.3.2-.4.4-.2.4-.2.6-.1.5-.1.7c0 .5-.1.9-.1 1.3v2.4c0 .4 0 .8.1 1.3 0 .2 0 .5.1.7 0 .2.1.4.2.6s.2.3.4.5c.2.1.5.2.7.2s.4-.1.6-.2.3-.2.4-.4.2-.4.2-.6.1-.5.1-.7v-.5c0-.1 0-.2.1-.3s.2-.1.3-.1h.5c.1 0 .2 0 .3.1s.1.2.1.3v1c0 .3 0 .5-.1.8s-.2.6-.4.8c-.2.3-.5.5-.8.7-.4.2-.9.3-1.4.3s-.9-.1-1.4-.3c-.3-.2-.6-.4-.8-.7s-.3-.5-.4-.8c-.1-.2-.1-.5-.1-.7 0-.5-.1-1-.1-1.5V23c0-.5 0-1 .1-1.5 0-.3 0-.5.1-.8s.2-.6.4-.9.5-.5.8-.7q.75-.3 1.5-.3.6 0 1.2.3c.6.3 1 .8 1.1 1.5.1.2.1.5.1.7zM152.9 29.6c0 .1 0 .2-.1.2-.1.1-.2.1-.3.1h-4.1c-.1 0-.2 0-.2-.1-.1-.1-.1-.2-.1-.3V19.3c0-.1 0-.2.1-.2.1-.1.2-.1.2-.1h4c.1 0 .2 0 .2.1.1.1.1.2.1.3v.5c0 .1 0 .2-.1.2-.1.1-.2.1-.2.1h-3.1v3.4h2.7c.1 0 .2 0 .3.1s.1.2.1.3v.5c0 .1 0 .2-.1.3s-.2.1-.3.1h-2.7v3.8h3.2c.1 0 .2 0 .2.1.1.1.1.2.1.3zM161.3 19c.2 0 .3.1.4.4l2 10.2v.3c-.1.1-.2.1-.2.1h-.6c-.2 0-.3-.1-.4-.4l-.4-1.8H160l-.4 1.8c0 .2-.2.4-.4.4h-.6c-.1 0-.2 0-.2-.1-.1-.1-.1-.2-.1-.3l2.1-10.2c0-.1 0-.2.1-.2.1-.1.2-.1.2-.1zm.6 7.6-.6-3.8-.2-2.1h-.1l-.2 2.1-.6 3.8zM167.1 20.9l.2 3.3v5.4c0 .1 0 .2-.1.3s-.2.1-.3.1h-.5c-.1 0-.2 0-.3-.1s-.1-.2-.1-.3V19.3c0-.1 0-.2.1-.2.1-.1.2-.1.3-.1h.9c.1 0 .2 0 .2.1s.1.2.1.2l2.9 8.7-.2-3.1v-5.5c0-.1 0-.2.1-.3s.2-.1.3-.1h.5c.1 0 .2 0 .2.1.1.1.1.2.1.3v10.2c0 .1 0 .2-.1.2-.1.1-.2.1-.2.1h-.9c-.1 0-.2 0-.2-.1-.1-.1-.1-.2-.1-.2zM174.5 19.3c0-.1 0-.2.1-.2.1-.1.2-.1.3-.1h2.4c.5 0 .9.1 1.4.2.3.2.6.4.8.6s.3.5.4.8.1.5.1.7c.1 1 .2 2 .2 3.1 0 1-.1 2.1-.2 3.1 0 .3-.1.5-.1.8-.1.6-.6 1.2-1.2 1.4q-.75.3-1.5.3H175c-.1 0-.2 0-.3-.1s-.1-.2-.1-.2zm1.2 9.4h1.5c.3 0 .5 0 .7-.1s.3-.2.4-.4.2-.4.2-.6.1-.4.1-.7c.1-.8.1-1.7.1-2.5s-.1-1.6-.2-2.4c0-.2-.1-.4-.1-.6s-.1-.4-.2-.6-.2-.3-.4-.4-.5-.2-.7-.1h-1.4zM190.1 19.9c0 .1 0 .2-.1.3s-.2.1-.3.1H188v9.3c0 .1 0 .2-.1.3s-.2.1-.3.1h-.5c-.1 0-.2 0-.2-.1-.1-.1-.1-.2-.1-.3v-9.3H185c-.1 0-.2 0-.2-.1-.1-.1-.1-.2-.1-.3v-.5c0-.1 0-.2.1-.3s.2-.1.2-.1h4.8c.1 0 .2 0 .3.1s.1.2.1.3zM196.8 29.6c0 .1 0 .2-.1.2-.1.1-.2.1-.3.1h-4.1c-.1 0-.2 0-.3-.1s-.1-.2-.1-.3V19.3c0-.1 0-.2.1-.2.1-.1.2-.1.3-.1h4c.1 0 .2 0 .3.1s.1.2.1.3v.5c0 .1 0 .2-.1.2-.1.1-.2.1-.3.1h-3.1v3.4h2.7c.1 0 .2 0 .2.1.1.1.1.2.1.3v.5c0 .1 0 .2-.1.3s-.2.1-.2.1h-2.7v3.8h3.2c.1 0 .2 0 .3.1s.1.2.1.3zM204 21.8c0 .1 0 .2-.1.2-.1.1-.2.1-.3.1h-.6c-.1 0-.2 0-.3-.1s-.1-.2-.1-.2v-.2c0-.2 0-.4-.1-.6 0-.2-.1-.3-.2-.5s-.2-.3-.4-.3c-.2-.1-.4-.1-.6-.1-.3 0-.5 0-.7.1s-.3.2-.4.4-.2.4-.2.6-.1.5-.1.7c0 .5 0 .9-.1 1.3s0 .8 0 1.2v1.2c0 .4 0 .8.1 1.3 0 .2 0 .5.1.7 0 .2.1.4.2.6s.2.3.4.5c.2.1.5.2.7.2s.4-.1.6-.2.3-.2.4-.4.2-.4.2-.6.1-.5.1-.7v-.5c0-.1 0-.2.1-.3s.2-.1.3-.1h.5c.1 0 .2 0 .2.1.1.1.1.2.1.3v1c0 .3 0 .5-.1.8s-.2.6-.4.8c-.2.3-.5.5-.8.7-.4.2-.9.3-1.4.3s-.9-.1-1.4-.3c-.3-.2-.6-.4-.8-.7s-.3-.5-.4-.8c-.1-.2-.1-.5-.1-.7 0-.5-.1-1-.1-1.5V23c0-.5 0-1 .1-1.5 0-.3 0-.5.1-.8s.2-.6.4-.9.5-.5.8-.7q.75-.3 1.5-.3.6 0 1.2.3c.3.2.5.4.7.6s.3.5.3.8c.1.2.1.5.1.7zM210.7 29.9c-.1 0-.2 0-.2-.1-.1-.1-.1-.2-.1-.3v-4.7h-2.9v4.7c0 .1 0 .2-.1.3s-.2.1-.3.1h-.5c-.1 0-.2 0-.3-.1s-.1-.2-.1-.3V19.3c0-.1 0-.2.1-.2.1-.1.2-.1.3-.1h.5c.1 0 .2 0 .3.1s.1.2.1.2v4.3h2.9v-4.3c0-.1 0-.2.1-.2.1-.1.2-.1.2-.1h.5c.1 0 .2 0 .3.1s.1.2.1.2v10.2c0 .1 0 .2-.1.2-.1.1-.2.1-.3.1zM215.5 20.9l.2 3.3v5.4c0 .1 0 .2-.1.3s-.2.1-.3.1h-.5c-.1 0-.2 0-.3-.1s-.1-.2-.1-.3V19.3c0-.1 0-.2.1-.2.1-.1.2-.1.3-.1h.9c.1 0 .2 0 .2.1s.1.2.1.2l2.9 8.7-.2-3.1v-5.5c0-.1 0-.2.1-.3s.2-.1.3-.1h.5c.1 0 .2 0 .3.1s.1.2.1.3v10.2c0 .1 0 .2-.1.2-.1.1-.2.1-.3.1h-.9c-.1 0-.2 0-.2-.1-.1-.1-.1-.2-.1-.2zM225.3 30.1c-.5 0-1-.1-1.4-.3-.3-.2-.6-.4-.8-.7s-.3-.6-.4-.9-.1-.5-.1-.8c0-1-.1-2-.1-2.9s0-1.9.1-2.9c0-.3.1-.5.1-.8.1-.3.2-.6.4-.9s.5-.5.8-.7c.9-.4 1.9-.4 2.8 0 .3.2.6.4.8.7s.3.6.4.9.1.5.1.8c0 1 .1 2 .1 2.9s0 1.9-.1 2.9c0 .3-.1.5-.1.8-.1.3-.2.6-.4.9s-.5.5-.8.7c-.4.2-.9.3-1.4.3m0-10c-.3 0-.5 0-.7.2-.2.1-.3.3-.4.4-.1.2-.2.4-.2.6s-.1.5-.1.7c0 .8-.1 1.7-.1 2.4s0 1.6.1 2.4c0 .2 0 .5.1.7 0 .2.1.4.2.6s.2.3.4.4.5.2.7.2.5 0 .7-.2c.2-.1.3-.3.4-.4.1-.2.2-.4.2-.6s0-.5.1-.7c0-.8.1-1.7.1-2.4s0-1.6-.1-2.4c0-.2 0-.5-.1-.7 0-.2-.1-.4-.2-.6s-.2-.3-.4-.4c-.2-.2-.5-.2-.7-.2M235.1 29.6c0 .1 0 .2-.1.2-.1.1-.2.1-.2.1H231c-.1 0-.2 0-.3-.1s-.1-.2-.1-.3V19.3c0-.1 0-.2.1-.2.1-.1.2-.1.3-.1h.5c.1 0 .2 0 .3.1s.1.2.1.2v9.4h3c.1 0 .2 0 .3.1s.1.2.1.3zM238.8 30.1c-.5 0-1-.1-1.4-.3-.3-.2-.6-.4-.8-.7s-.3-.6-.4-.9-.1-.5-.1-.8c0-1-.1-2-.1-2.9s0-1.9.1-2.9c0-.3.1-.5.1-.8.1-.3.2-.6.4-.9s.5-.5.8-.7c.9-.4 1.9-.4 2.8 0 .3.2.6.4.8.7s.3.6.4.9.1.5.1.8c.1 1 .1 2 .1 2.9s0 1.9-.1 2.9c0 .3 0 .5-.1.8s-.2.6-.4.9-.5.5-.8.7c-.5.2-.9.3-1.4.3m0-10c-.2 0-.5 0-.7.2-.2.1-.3.3-.4.4-.1.2-.2.4-.2.6s-.1.5-.1.7c-.1.8-.1 1.7-.1 2.4s0 1.6.1 2.4c0 .2 0 .5.1.7 0 .2.1.4.2.6s.2.3.4.4c.4.2 1 .2 1.4 0 .2-.1.3-.3.4-.4.1-.2.2-.4.2-.6s.1-.5.1-.7c0-.8.1-1.7.1-2.4s0-1.6-.1-2.4c0-.2 0-.5-.1-.7 0-.2-.1-.4-.2-.6s-.2-.3-.4-.4c-.2-.2-.5-.2-.7-.2M249 24v5.6c0 .1 0 .2-.1.2-.1.1-.2.1-.2.1h-.5c-.1 0-.2 0-.2-.1s-.1-.1-.1-.2v-.1c-.2.2-.4.4-.6.4-.7.2-1.4.1-2-.2-.3-.2-.6-.5-.8-.8s-.3-.6-.4-.9c-.1-.2-.1-.5-.1-.8-.1-.9-.1-1.9-.1-2.8s0-1.9.1-2.8c0-.3.1-.6.1-.9.1-.3.2-.6.4-.9s.5-.5.8-.7c.4-.2.9-.3 1.3-.3.5 0 1 .1 1.4.3.6.3 1 .9 1.1 1.6 0 .2.1.5.1.7v.2c0 .1 0 .2-.1.2-.1.1-.2.1-.2.1h-.5c-.1 0-.2 0-.3-.1s-.1-.2-.1-.2v-.5c0-.2-.1-.3-.1-.5-.1-.2-.2-.3-.4-.4s-.5-.2-.7-.1c-.2 0-.5 0-.7.1s-.3.2-.4.4-.2.4-.2.6-.1.4-.1.7c-.1.9-.1 1.8-.1 2.6 0 .9.1 1.7.1 2.6 0 .5.2 1 .4 1.4.2.3.6.5.9.4.3 0 .5 0 .7-.2.2-.1.3-.3.4-.5s.1-.4.2-.6v-2.4h-1.3c-.1 0-.2 0-.2-.1-.1-.1-.1-.2-.1-.3v-.5c0-.1 0-.2.1-.3s.2-.1.2-.1zM253.2 29.9c-.1 0-.2 0-.3-.1s-.1-.2-.1-.3v-4.7l-2-5.6V19c.1 0 .1-.1.2-.1h.6c.1 0 .2 0 .2.1.1.1.1.2.1.3l1.3 4 1.4-4c0-.1.1-.2.1-.3.1-.1.2-.1.2-.1h.7c.1 0 .2 0 .3.1v.2l-2.1 5.6v4.7c0 .1 0 .2-.1.3s-.2.1-.3.1zM81.5 45.9c0 .2 0 .5.1.7 0 .2.1.4.2.6s.3.3.4.4q.75.3 1.5 0c.2-.1.3-.2.4-.4s.2-.4.2-.6v-8.4c0-.1 0-.2.1-.2.1-.1.2-.1.3-.1h.5c.2 0 .3.1.4.3v8.2c0 .3 0 .5-.1.8s-.2.6-.4.8c-.2.3-.5.5-.8.7q-.75.3-1.5.3c-.5 0-.9-.1-1.4-.3-.3-.2-.6-.4-.8-.6s-.3-.5-.4-.8c0-.2-.1-.5-.1-.7v-8.3c0-.1 0-.2.1-.3s.2-.1.3-.1h.5c.2 0 .4.2.4.3zM89.3 39.8l.2 3.3v5.4c0 .1 0 .2-.1.2-.1.1-.2.1-.3.1h-.5c-.1 0-.2 0-.3-.1s-.1-.2-.1-.3V38.2c0-.1 0-.2.1-.2.1-.1.2-.1.3-.1h.9c.1 0 .2 0 .2.1s.1.2.1.2l2.9 8.7-.2-3.1v-5.5c0-.1 0-.2.1-.3s.2-.1.3-.1h.5c.1 0 .2 0 .3.1s.1.2.1.3v10.2c0 .2-.2.4-.4.3h-.9c-.1 0-.2 0-.2-.1s-.1-.2-.1-.2zM97.3 48.9c-.1 0-.2 0-.2-.1-.1-.1-.1-.2-.1-.2V38.2c0-.1.1-.2.1-.2.1-.1.2-.1.2-.1h.5c.1 0 .2 0 .2.1.1.1.1.2.1.2v10.2c0 .1 0 .2-.1.2-.1.1-.2.1-.3.1h-.4zM102.7 48.9c-.2 0-.3-.1-.4-.3l-2.1-10.2c-.1-.1 0-.3.2-.3h.7c.2 0 .3.1.4.4l.6 3.3.8 4.9.8-4.9.6-3.3c0-.2.2-.4.4-.4h.6c.1 0 .2 0 .2.1v.3l-2.1 10.2c0 .2-.2.3-.3.3zM112.7 48.5c0 .1 0 .2-.1.2-.1.1-.2.1-.2.1h-4.1c-.1 0-.2 0-.3-.1s-.1-.2-.1-.2V38.2c0-.1.1-.2.1-.2.1-.1.2-.1.3-.1h4c.1 0 .2 0 .3.1s.1.2.1.3v.6c0 .1 0 .2-.1.3s-.2.1-.3.1h-3.1v3.4h2.6c.1 0 .2 0 .3.1s.1.2.1.3v.5c0 .1 0 .2-.1.2-.1.1-.2.1-.3.1h-2.6v3.8h3.2c.1 0 .2 0 .2.1.1.1.1.2.1.3zM120.4 48.5v.2c0 .1-.2.1-.3.1h-.6c-.1 0-.2 0-.2-.1-.1-.1-.1-.2-.1-.3l-1.5-4.8h-1.4v4.8c0 .1 0 .2-.1.2-.1.1-.2.1-.3.1h-.5c-.1 0-.2 0-.2-.1-.1-.1-.1-.1-.1-.2V38.2c0-.2.2-.3.3-.4h1.9c.5 0 1 0 1.5.2.4.1.8.3 1 .7.2.3.3.6.4.9.1.4.1.8.1 1.2 0 .6-.1 1.2-.3 1.7-.2.4-.6.7-1.1.9zm-4.2-6h1.7c.2 0 .4-.1.5-.2s.2-.1.2-.2c.1-.1.1-.2.2-.3s.1-.2.1-.4v-.5c0-.3 0-.7-.1-1-.1-.2-.2-.4-.4-.5-.1 0-.2-.1-.2-.1h-1.9000000000000001zM127.6 45.9c.1.9-.2 1.7-.7 2.4-.5.5-1.3.8-2 .8-.5 0-.9-.1-1.3-.3s-.7-.4-.9-.8c-.2-.3-.4-.7-.4-1.1-.1-.4-.1-.9-.1-1.3v-.2c0-.1 0-.2.1-.2.1-.1.2-.1.3-.1h.5c.1 0 .2 0 .2.1.1.1.1.2.1.2v.2c0 .3 0 .7.1 1 .1.2.2.5.3.6s.3.3.5.3c.2.1.4.1.6.1.4 0 .8-.1 1.1-.4.3-.4.5-.9.4-1.4 0-.4-.1-.7-.3-1s-.5-.6-.8-.8-.6-.5-1-.7-.7-.5-1-.8-.6-.6-.8-1-.3-.9-.3-1.4c0-.3.1-.7.2-1s.3-.6.5-.8.5-.4.8-.6c.4-.1.7-.2 1.1-.2s.8.1 1.1.2.6.3.8.6c.2.2.4.5.5.8s.2.6.2.9v.1c0 .2-.1.3-.3.4h-.5c-.1 0-.2 0-.3-.1s-.1-.2-.1-.2c0-.4-.1-.7-.3-1-.2-.2-.6-.4-.9-.4-.2 0-.4 0-.6.1s-.3.2-.4.3-.2.3-.2.4c0 .2-.1.3-.1.5 0 .4.1.7.3 1s.5.6.8.8.6.5 1 .7.7.5 1 .8.6.6.8 1c-.1.5 0 1 0 1.5M130.3 48.9c-.1 0-.2 0-.3-.1s-.1-.2-.1-.2V38.2c0-.1 0-.2.1-.2.1-.1.2-.1.3-.1h.6c.1 0 .2 0 .3.1s.1.2.1.2v10.2c0 .1 0 .2-.1.2-.1.1-.2.1-.3.1h-.6zM138.9 38.8c0 .1 0 .2-.1.3s-.2.1-.2.1h-1.8v9.3c0 .1 0 .2-.1.2-.1.1-.2.1-.3.1h-.5c-.1 0-.2 0-.2-.1-.1-.1-.1-.2-.1-.2v-9.3h-1.8c-.1 0-.2 0-.2-.1-.1-.1-.1-.2-.1-.3v-.5c0-.1 0-.2.1-.3s.2-.1.2-.1h4.8c.1 0 .2 0 .2.1.1.1.1.2.1.3zM142.4 48.9c-.1 0-.2 0-.3-.1s-.1-.2-.1-.2v-4.7l-2-5.6v-.2c.1-.1.2-.1.3-.1h.6c.1 0 .2 0 .2.1.1.1.1.2.1.3l1.3 4 1.4-4c0-.1.1-.2.1-.2.1-.1.1-.1.2-.1h.7c.1 0 .2 0 .3.1v.2l-2.1 5.6v4.7c0 .1 0 .2-.1.2-.1.1-.2.1-.3.1zM156.2 48.5c0 .1 0 .2-.1.2-.1.1-.2.1-.3.1H152c-.1 0-.2 0-.3-.1s-.1-.2-.1-.2V38.2c0-.1 0-.2.1-.2.1-.1.2-.1.3-.1h.5c.1 0 .2 0 .3.1s.1.2.1.2v9.4h3c.1 0 .2 0 .2.1.1.1.1.2.1.3zM158.6 48.9c-.1 0-.2 0-.3-.1s-.1-.2-.1-.2V38.2c0-.1 0-.2.1-.2.1-.1.2-.1.3-.1h.5c.1 0 .2 0 .3.1s.1.2.1.2v10.2c0 .1 0 .2-.1.2-.1.1-.2.1-.3.1h-.5zM164.6 37.9c.4 0 .8 0 1.1.1.3 0 .6.1.8.2.4.2.7.6.8 1 .2.4.3.9.3 1.4 0 .6 0 1.2-.2 1.7-.1.2-.2.3-.3.5-.1.1-.3.2-.4.3.4.1.8.4 1 .8.2.5.3 1.1.3 1.6 0 .4 0 .8-.1 1.2 0 .4-.2.8-.4 1.1s-.5.6-.8.8q-.75.3-1.5.3H163c-.1 0-.2 0-.2-.1-.1-.1-.1-.2-.1-.2V38.2c0-.1 0-.2.1-.3s.1-.1.2-.1zm-.8 4.6h1.7c.2 0 .4-.1.5-.2.2-.2.3-.4.4-.6.1-.3.1-.7.1-1.1 0-.3 0-.5-.1-.8-.1-.2-.2-.3-.4-.4s-.4-.2-.6-.2h-1.6zm0 1.2v3.9h1.3c.2 0 .5 0 .7-.1s.4-.2.5-.3q.3-.3.3-.6c.1-.4.1-.7.1-1.1 0-.3 0-.6-.1-.9-.1-.2-.2-.4-.4-.5s-.4-.2-.6-.2c-.3-.1-.6-.1-.9-.1zM175.8 48.5v.2c-.1.1-.2.1-.3.1h-.6c-.1 0-.2 0-.2-.1-.1-.1-.1-.2-.2-.3l-1.5-4.8h-1.4v4.8c0 .1 0 .2-.1.2-.1.1-.2.1-.3.1h-.5c-.1 0-.2 0-.3-.1s-.1-.1-.1-.2V38.2c0-.1 0-.2.1-.3s.2-.1.2-.1h1.9c.5 0 1 0 1.5.2.4.1.8.3 1 .7.2.3.3.6.4.9.1.4.1.8.1 1.2 0 .6-.1 1.2-.3 1.7-.2.4-.6.8-1.1.9zm-4.2-6h1.7c.2 0 .4-.1.5-.2s.2-.1.2-.2c.1-.1.1-.2.2-.3s.1-.2.1-.4v-.5c0-.3 0-.7-.1-1-.1-.2-.2-.4-.4-.5-.1 0-.2-.1-.2-.1h-2.1zM180.6 37.9c.2 0 .3.1.4.4l2 10.2v.3c-.1.1-.2.1-.2.1h-.6c-.2 0-.3-.1-.4-.3l-.4-1.8h-2.1l-.4 1.8c0 .2-.2.3-.4.3h-.6c-.1 0-.2 0-.2-.1v-.2l2-10.2c0-.1.1-.2.1-.3.1-.1.2-.1.2-.1zm.6 7.5-.6-3.8-.2-2.1h-.1l-.2 2.1-.6 3.8zM190.8 48.5v.2c0 .1-.2.1-.3.1h-.6c-.1 0-.2 0-.2-.1-.1-.1-.1-.2-.2-.3l-1.5-4.8h-1.4v4.8c0 .1 0 .2-.1.2-.1.1-.2.1-.3.1h-.5c-.2 0-.3-.2-.3-.3V38.2c0-.1 0-.2.1-.3s.2-.1.2-.1h1.9c.5 0 1 0 1.5.2.4.1.8.3 1 .7.2.3.3.6.4.9.1.4.1.8.1 1.2 0 .6-.1 1.2-.3 1.7-.2.4-.6.8-1.1.9zm-4.2-6h1.7c.2 0 .4-.1.5-.2.1 0 .2-.1.3-.2s.1-.2.2-.3c0-.1.1-.2.1-.4v-.5c0-.3 0-.7-.1-1-.1-.2-.2-.4-.4-.5-.1-.1-.2-.1-.2-.1h-2zM194.4 48.9c-.1 0-.2 0-.3-.1s-.1-.2-.1-.2v-4.7l-2-5.6v-.2c.1-.1.2-.1.3-.1h.6c.1 0 .2 0 .2.1.1.1.1.2.1.3l1.3 4 1.4-4c0-.1.1-.2.1-.3.1-.1.1-.1.2-.1h.7c.1 0 .2 0 .3.1v.2l-2.1 5.6v4.7c0 .1 0 .2-.1.2-.1.1-.2.1-.3.1z"/></g></g></svg>