<svg xml:space="preserve" style="max-height: 500px" viewBox="59.52 36.72 188.4 128.8" y="0px" x="0px" xmlns:xlink="http://www.w3.org/1999/xlink" xmlns="http://www.w3.org/2000/svg" id="Layer_1" version="1.0" width="188.4" height="128.8">
<style type="text/css">
	.st0{fill:#0072BC;}
	.st1{fill:#FFFFFF;}
	.st2{fill:#58595B;}
</style>
<path d="M139.1,40.9v58.4c0,32.2-38.6,38.6-38.6,38.6S62,131.5,62,99.3V40.9c12.8-1.4,25.7-2.1,38.6-2&#10;&#9;C113.4,38.8,126.3,39.5,139.1,40.9" class="st0"/>
<path d="M72.4,48.5c0.3,0.7,0.9,1.2,1.7,1.2c0.8,0.1,1.6-0.3,2.1-1c-0.8,0.2-1.6-0.2-2.1-0.8c-0.4-0.6-1-1.1-1.8-1.1&#10;&#9;c-0.5,0-1,0.1-1.5,0.4C71.5,47.4,72.1,47.9,72.4,48.5 M74.8,49.1c-1.5,0.5-1.9-1.4-2.5-1.7C73.1,47.2,73.7,49,74.8,49.1" class="st1"/>
<path d="M89.6,46.6c1,0.7,3.2,0.8,4.1-0.1c1.1,0.7,2.4,0.7,3.5,0c1.2,0.8,2.9,0.5,3.8-0.6c-0.7-0.1-1.4-0.3-2-0.8&#10;&#9;c-0.7-0.7-1.8-0.7-2.6-0.2c-1.1-0.7-2.4-0.7-3.5-0.1c-1.1-0.7-2.5-0.7-3.7-0.1c-1.4-0.6-2.9-0.4-4.1,0.5c-0.8,0.7-1.3,1.8-1.4,2.9&#10;&#9;c-0.1,2,1.5,3.7,3.5,3.8c0,0,0,0,0.1,0c1.7-0.1,3.3-0.2,5-0.5c1.6-0.2,3.3-0.1,4.8,0.3c1.8,0.8,1.8,2.6,0.5,3&#10;&#9;c-1.2,0.4-4.3-0.8-5.8,0.2c-1.5-1.8-5.8,0-7.8-0.3c-0.2,0.6-0.8,1.1-1.4,1c0.8,1,0.4,3.2-1.4,3.3c-0.5,1.2-1.6,1.6-2.3,1.1&#10;&#9;c-0.2,1.1-1.9,1.8-2.6,1.1c-0.5,0.5-0.7,1.1-0.6,1.8c-0.6,0.2-0.8,0.8-1.4,1c0.2-0.4,0-0.9-0.3-1.3c-0.3-0.2-0.7-0.2-1,0h-1l0.6,0.4&#10;&#9;c-0.1,0.1-0.1,0.2-0.1,0.3c0.3-0.1,0.7-0.1,0.9,0.1l-0.1,0.1c-0.9-0.2-1.4,0.2-1.5,0.8L71,65.2l0.8-0.2c0.1,0.1,0.3,0.3,0.4,0.3&#10;&#9;c0.2,0.1,0.5,0.1,0.7-0.1C73,65,72.8,65,72.8,65c0.2-0.1,0.3-0.1,0.4,0c0.1,0.2,0,0.4-0.1,0.5c0,0,0,0-0.1,0c-0.3,0.2-0.6,0.2-0.9,0&#10;&#9;c-0.3,0.5-0.1,1.1,0.4,1.4c0.1,0.1,0.2,0.1,0.3,0.1l0.3,0.9l0.2-0.9c0.4-0.1,0.7-0.4,0.8-0.8c0.1,0.1,0.3,0.1,0.5,0.2l0.4,0.8&#10;&#9;l0.2-0.8l0.1-0.1c0.4-0.2,0.5-0.7,0.2-1.1c0,0,0,0,0,0c0.6-0.1,1-0.2,1.2-0.8c0.7,0.3,1.6,0.3,2.2-0.2l-0.5-0.4&#10;&#9;c0.6-0.1,1.2-0.2,1.7-0.5L79.6,63c0.6-0.2,1.2-0.4,1.8-0.7l-0.5-0.3c0.7-0.4,1.3-1,1.6-1.8c2.1-0.1,3.8-2.8,6.2-3&#10;&#9;c-0.2-0.2-0.5-0.4-0.8-0.5l0.2-0.4c1.5,0.2,1.9,0.9,2.3,2c0.4,1.1,1.3,1.9,2.4,2.2c0.7,0.1,1.4,0.2,2.1,0.1c0.9-0.1,1.8,0.6,1.9,1.5&#10;&#9;c0,0.1,0,0.2,0,0.3c0,0.4-0.1,0.8-0.4,1.1c-0.4,0.1-1.2-0.8-1.9-0.4c-0.1,0.1-0.2,0.1-0.3,0.2l-0.8,0.2l0.7,0.2c0,0.2,0,0.4,0.1,0.6&#10;&#9;c0.4-0.2,0.8-0.2,1.2-0.1l-0.1,0.3c-0.4,0-1.7,0-1.6,1.2c0,0.2,0.1,0.4,0.3,0.6l-0.2,0.9l0.8-0.6c0.4,0.1,0.8,0,1.2-0.3&#10;&#9;c0.3,0.5,0.8,0.7,1.4,0.7l0.7,0.8l-0.1-1c0.4-0.2,0.6-0.6,0.2-1.6c0.2,0.1,0.4,0.1,0.6,0l0.5,0.5l-0.2-0.8c0.2-0.4,0.2-0.8,0-1.2&#10;&#9;c0.3-0.3,0.6-0.6,0.8-1c-0.2,0-0.4-0.1-0.6-0.1c0.3-0.3,0.5-0.6,0.8-0.9c-0.4-0.3-0.9-0.5-0.9-0.9l0,0c0.4,0,0.7-0.3,0.8-0.7&#10;&#9;c0-0.4-0.4-0.7-0.7-0.7c0,0,0,0,0,0c0-0.4-0.2-0.7-0.6-0.7s-0.7,0.2-0.7,0.6c0,0.1,0,0.1,0,0.2h-0.8c0.5-0.8-0.4-3.5-3.5-2.5&#10;&#9;l-0.3-0.4c1.4-0.9,3.2-0.2,4.5-0.2c1.3,0.1,2.4-0.9,2.5-2.2c0-0.1,0-0.2,0-0.2c0-1.1-0.6-2.2-1.6-2.8c0.7-1.2-0.4-1.9-1.1-2.2&#10;&#9;c0,0.7-0.4,1.3-1.1,1.6c-0.2-0.8-0.7-1.4-1.4-1.7c-0.1,0.7-0.5,1.3-1.1,1.7c-0.2-0.7-0.7-1.3-1.3-1.5c-0.1,0.7-0.4,1.3-1,1.7&#10;&#9;c-0.2-0.8-0.7-1.4-1.4-1.6c-0.3,1-1.2,1.7-2.3,1.8c-1.4,0-2.6-1.2-2.6-2.6c0,0,0,0,0,0c0-0.6,0.2-1.1,0.6-1.6l-0.3-0.3l0.6-0.2&#10;&#9;C86.8,47.1,88.4,47.4,89.6,46.6" class="st1"/>
<path d="M90.5,60c-0.7-0.6-1.1-1.4-1.4-2.2c-0.4,0-0.7,0.1-1.1,0.2c-0.3,0.4-0.6,0.9-0.8,1.4c0,0-0.9,0.1-1.2,1.5&#10;&#9;l0.4-0.1c-0.2,0.8-0.1,1.7,0.4,2.5c-0.5,0.1-0.9,0.4-1.3,0.7c-0.2-0.1-0.2-0.6-0.6-0.9c-0.2-0.3-0.6-0.3-0.9,0c0,0,0,0,0,0L83,63&#10;&#9;l0.6,0.3c0,0.1-0.1,0.1-0.1,0.2c0.3,0.1,0.5,0.2,0.7,0.4l-0.1,0.3c-1-0.5-1.8-0.3-1.9,0.4c0,0,0,0.1,0,0.2l-0.7,0.7l0.8-0.2&#10;&#9;c0.1,0.2,0.3,0.3,0.6,0.3c-0.4,0.3-0.5,0.9-0.2,1.3c0.1,0.2,0.3,0.3,0.6,0.4l0.4,0.9v-0.9c0.6-0.1,0.8-0.6,0.9-0.9&#10;&#9;c0.1,0.1,0.3,0.2,0.5,0.2l0.3,0.8l0.2-0.8c0.1,0,0.1-0.1,0.2-0.1c0.3-0.2,0.4-0.6,0.3-0.9c0.4,0.1,0.9-0.1,1.2-0.4&#10;&#9;c0.6,0.1,1.1,0.1,1.7-0.1l-0.4-0.5c0.4,0,0.8-0.1,1.2-0.4c-0.1-0.3-0.2-0.6-0.2-1h0.1c0.4,0,0.7-0.2,0.7-0.6c0,0,0,0,0-0.1&#10;&#9;c0-0.3-0.3-0.6-0.6-0.6h-0.3C89.5,61,89.9,60.4,90.5,60" class="st1"/>
<path d="M73.3,57c-0.3-0.9-0.3-1.9,0-2.8h-1c0-1-1.7-1.2-1.8-1.6c0.4-0.6,0.8-0.3,1.2-0.8c0.3-0.3,0.3-0.7,0.1-1&#10;&#9;l0.3-0.7l-1.4,1l-0.2-0.1c0.1-0.3,0.9-0.8,0.6-1.3c-0.1-0.2-0.2-0.3-0.4-0.4l-0.4-0.9l-0.2,0.9c-0.2,0.1-0.4,0.2-0.5,0.4&#10;&#9;c0.3,0.2,0.4,0.8,0.3,1.1c-0.1,0.2-0.3,0.4-0.4,0.6c0.1,0,0.1,0,0.2,0.1c0,0.2-0.1,0.3-0.3,0.3s-0.2-0.4-0.1-0.7&#10;&#9;c0.2-0.3,0.2-0.8,0-1.1c-0.2-0.3-0.6-0.3-0.9-0.1l-0.7-0.4l0.3,1c-0.1,0.4-0.1,0.9,0.1,1.3c-0.1,0-0.2,0.1-0.3,0.2l-1-0.4l0.7,0.9&#10;&#9;c0,0.1,0,0.2,0,0.3c0.2,0.4,0.5,0.6,0.9,0.7c-0.2,0.5,0.1,1.2,0.6,1.2c0,0.7,0.3,1.3,0.8,1.8l0.2-0.8c0.1,0.1,0.7,1.1,0.9,1.2&#10;&#9;c0.1,0.1,0.2-0.7,0.2-0.7C71.7,57,72.5,57.3,73.3,57" class="st1"/>
<path d="M75.2,46.4c-0.1-0.2,0-0.3,0.1-0.5c0.1-0.1,0.3-0.1,0.5,0c0.1,0.1,0.1,0.4,0,0.5c-0.3,0.3-0.7,0.4-1.2,0.4&#10;&#9;c0,0.7,0.6,1.2,1.3,1.2c0,0,0,0,0,0c0.6-0.1,1.2-0.3,1.7-0.6c0.2-0.1,0.4-0.3,0.7-0.4c0.3-0.2,0.8,0,0.7,0.4l-0.2,0.9&#10;&#9;c-0.2,0.7-0.4,0.6-0.9,0.8c-0.9,0.2-2.9,0.3-2.5,1.9c0.4-0.1,0.8-0.3,1.1-0.5l0.8,0.3c0.6-1.1,2-0.4,2.5-1.8l0.4,0.1&#10;&#9;c-0.1,2.4-4.5,2.2-5.9,4.5c-0.9,1.7-0.6,3.9,0.7,5.3h-0.2c-0.4,0.1-0.7,0.4-0.7,0.8c0,0.4,0.4,0.8,0.8,0.8c0.3,0,0.5-0.1,0.7-0.4&#10;&#9;c0-0.5,0.4-0.9,0.9-0.9c-0.3-0.9-2.1-2.1-1.3-4.3l0.3,0.1c-0.4,2,1.8,3.4,1.6,4.7c0,0.2-0.2,0.3-0.3,0.3c0,0,0,0,0,0&#10;&#9;c-0.1,0-0.2-0.1,0-0.2l-0.1-0.2c-0.2,0-0.3,0.1-0.4,0.3c-0.1,0.2-0.1,0.3-0.1,0.5c0.1,0.2,0.2,0.3,0.3,0.4c0.3,0.1,0.6,0.1,0.9,0&#10;&#9;c0.6-0.2,1-0.8,1-1.5c-0.1-0.3-0.1-0.5,0-0.8c-1.5-1.2-2.1-3.3-1.3-5.1l0.3,0.1c-0.4,1.9,0.4,3.9,2,5c0.1,0.1,0.1,0.3,0,0.4&#10;&#9;c0,0,0,0,0,0c-0.1,0.1-0.2,0.1-0.2-0.1l-0.3-0.2c-0.1,0.3,0.1,0.7,0.4,0.8c0.1,0,0.1,0,0.2,0c0.6-0.1,1.1-0.6,1.2-1.2&#10;&#9;c0.3-1.5-2.7-2.8-1.6-5.6l0.4,0.1c-0.7,3,1.9,3,1.9,5.3c0.7-0.1,1.2-0.7,1.1-1.3c0-0.1,0-0.2-0.1-0.3c-0.3-1.2-2-1.6-1.4-3.4&#10;&#9;l0.4,0.1c-0.3,0.6-0.2,1.3,0.4,1.8c0.4,0.3,0.9,0.4,1.4,0.1c0.5-0.3,0.6-0.9,0.3-1.4c-1.1,0-1.3-1-1.3-2c0.1-0.6-0.1-1.2-0.4-1.8&#10;&#9;c0.6-0.2,0.9-0.8,0.7-1.3c0-0.1-0.1-0.2-0.2-0.3c0.6-0.4,0.2-1.2-0.1-1.4c0.5-0.3,0.7-0.9,0.7-1.4c-0.3,0-0.6,0-0.9-0.1&#10;&#9;c0.2-0.2,0.2-0.5,0.2-0.8c-0.2-0.4-0.6-0.7-1.1-0.5c-0.3,0.1-0.5,0.3-0.5,0.6c0,0-0.7-0.1-1.2-0.2c-0.8-0.2-1.9-0.5-2.3-0.1&#10;&#9;l-0.7,0.8c-0.7,0-1.3,0.1-1.9,0.4C74.2,45.9,74.2,46.6,75.2,46.4 M77.2,45.3l0.1,0.2l0.1-0.1c0.3-0.2,0.6-0.3,0.9-0.3&#10;&#9;c0.4,0,0.7,0.1,1,0.3l-0.3,0.4l-0.2-0.1c0,0.1-0.1,0.2-0.1,0.3c-0.1,0.1-0.2,0.2-0.4,0.2c-0.1,0-0.3,0-0.4-0.1&#10;&#9;c-0.1-0.1-0.1-0.2-0.2-0.3l-0.1,0.1l-0.2,0.1c0,0-0.1,0-0.1,0c-0.1,0-0.2-0.1-0.3-0.2C77,45.6,77.1,45.3,77.2,45.3" class="st1"/>
<path d="M118.8,69.2c0,0.6,0.4,1.1,1,1.1c0,0,0.1,0,0.1,0l0,0c0.6,0,1.8-0.3,2.6-2.2c0.5-0.9,0.4-1.9-0.1-2.8&#10;&#9;c-0.4-0.6-1.4-0.9-1.9-0.4c0.9,0.2,1,1.6,0.6,2.6S119.9,69.5,118.8,69.2" class="st1"/>
<path d="M120.2,65.2c-4.1-2.4-8.6-8.4-7.3-16.8c-0.5,0.1-1,0.2-1.5,0.1c-1.3,7.2-0.4,15,7.3,20.1&#10;&#9;C120.2,69.1,121.5,66.3,120.2,65.2" class="st1"/>
<path d="M129.1,44.4h-0.4c-1.3,0.1-2.6,0.4-3.8,0.8c-1.7,0.6-3.5,1-5.3,1.1c-1.6,0-3.1-0.5-4.4-1.4l-0.3-0.3&#10;&#9;c-0.8-0.7-1.9-1.2-3-1.2c-1.3,0-2.3,1-2.4,2.3c0,0,0,0,0,0c0,1.1,0.9,2,2,2c0.1,0,0.1,0,0.2,0c0.8,0.1,1.4-0.4,1.6-1.2&#10;&#9;c0.1-0.5-0.3-1-0.8-1.1l0.2-0.7c1,0.1,1.6,1,1.5,2c0,0.3-0.1,0.5-0.3,0.7c1.4,1.1,3.2,1.6,5,1.7c2-0.1,3.9-0.6,5.7-1.4&#10;&#9;c1.1-0.5,2.4-0.9,3.7-1c0.2,0,0.3,0,0.5,0l0,0l-0.3,0.7l2.6,0.9l0.3-0.8c0.4-1.2-0.2-2.5-1.4-3C129.7,44.5,129.5,44.4,129.1,44.4" class="st1"/>
<path d="M122.9,73.2L122.9,73.2l0.1-0.6l-4.8-1.7l-0.3,0.5l0,0h-0.2c-0.3,0-0.5,0.2-0.6,0.4c-0.1,0.3,0,0.6,0.3,0.8&#10;&#9;l-0.2,0.7l4.8,1.7l0.3-0.6c0,0,0.1,0,0.1,0c0.3,0,0.5-0.2,0.6-0.4C123.3,73.7,123.2,73.3,122.9,73.2" class="st1"/>
<polygon points="128,48 127.7,48.7 127.5,48.6 127.2,49.5 130.8,50.8 131,49.9 130.8,49.8 131,49.1" class="st1"/>
<path d="M123.2,64.8l-0.4-0.7l5.3-13.6l-0.9-0.3l-0.3,0.7l-1.5-2.5l-0.5,0.2h-0.1l1.8,3.1l-0.6,1.5l-2.4-4.1l-0.6,0.2&#10;&#9;l2.7,4.6l-0.6,1.5l-3.3-5.7l-0.7,0.2l3.7,6.2c0,0-0.6,1.4-0.6,1.5l-4.4-7.5H119l4.8,8.2c-0.1,0.3-0.6,1.5-0.6,1.5l-5.8-9.8&#10;&#9;c-0.3,0-0.6-0.1-0.9-0.2l6.3,10.7c0,0-0.5,1.2-0.6,1.5l-7.5-12.9c-0.4-0.2-0.8-0.4-1.2-0.7l8.4,14.3l-0.7,1.6c1.5-0.2,2.8,1.8,1.8,4&#10;&#9;c-0.8,1.8-1.8,2.4-2.7,2.5l2.4,0.9l7.2-20.5l-1.2-0.5L123.2,64.8z" class="st1"/>
<path d="M102.7,116.9v-1.2h0.9c-0.1-0.2-0.2-0.4-0.4-0.7h-0.5v-0.5c-0.2-0.2-0.4-0.3-0.7-0.4v0.9h-1.2v-0.9h-0.7v0.9H99&#10;&#9;v-0.9c-0.2,0.1-0.4,0.3-0.7,0.4v0.5h-0.4c-0.2,0.2-0.3,0.4-0.4,0.7h0.8v1.2h-1.2c0,0.1,0,0.2,0,0.2v0.4h1.2v1.2H99v-1.2h1.2v1.2h0.7&#10;&#9;v-1.2h1.2v1.2h0.6v-1.2h1.3v-0.4c0-0.1,0-0.2,0-0.2H102.7z M100.2,116.9H99v-1.2h1.2V116.9z M102.1,116.9h-1.2v-1.2h1.2V116.9z" class="st1"/>
<path d="M78.5,99.5h0.2l0.7-0.1l0.8,1.9h0.6v-2.2h3.4v2.1h0.6l0.7-1.9l0.7,0.1h0.2c-0.3-2.2-2.3-3.7-4.5-3.4&#10;&#9;c-1.8,0.3-3.1,1.6-3.4,3.4" class="st1"/>
<path d="M114,107.9c0.1-0.4,0.3-0.8,0.6-1l0.1-2.3h-1.8v2.8h-3.5v-2.8h-3.5v2.8h-3.5v-2.8h-3.5v2.8h-3.5v-2.8h-3.5v2.8&#10;&#9;h-3.5v-2.8h-1.8l0.1,2.3c0.3,0.2,0.6,0.6,0.6,1c0,0.4-0.1,0.8-0.5,1.1v0.4h27.8V109C114.1,108.8,113.9,108.4,114,107.9" class="st1"/>
<path d="M98.8,111.1l-0.1-0.9h-12l0.6,12.6h7v-5.8C94.3,114.3,96.1,111.9,98.8,111.1 M91.7,114.2L91.7,114.2v2.5h-2&#10;&#9;v-2.5l0,0v-1.6c0-0.4,0.6-0.9,0.8-1.1l0.2-0.2l0,0l0.2,0.2c0.2,0.2,0.8,0.7,0.8,1.1L91.7,114.2z" class="st1"/>
<path d="M95.1,117.1v0.8h1.4v-0.8c0-0.2,0-0.5,0.1-0.7l-1.3-0.4C95.1,116.4,95.1,116.7,95.1,117.1" class="st1"/>
<rect height="1.7" width="1.4" class="st1" y="121.2" x="95.1"/>
<rect height="1.7" width="1.4" class="st1" y="118.7" x="95.1"/>
<path d="M104.7,116.4c0,0.2,0,0.5,0,0.7v0.8h1.4v-0.8c0-0.3,0-0.7-0.1-1L104.7,116.4z" class="st1"/>
<path d="M96.4,113.5c-0.5,0.5-0.8,1.1-1.1,1.8l1.4,0.4c0.2-0.4,0.4-0.8,0.7-1.2L96.4,113.5z" class="st1"/>
<rect height="1.7" width="1.4" class="st1" y="121.2" x="104.7"/>
<path d="M104.8,113.5l-1,1c0.3,0.3,0.5,0.7,0.7,1.2l1.4-0.4C105.6,114.6,105.3,114,104.8,113.5" class="st1"/>
<rect height="1.7" width="1.4" class="st1" y="118.7" x="104.7"/>
<polygon points="101.7,110.3 99.5,110.3 99.7,113.5 101.5,113.5" class="st1"/>
<path d="M98.9,113.3l-0.1-1.5c-0.7,0.2-1.3,0.6-1.8,1.1l1,1C98.3,113.7,98.6,113.5,98.9,113.3" class="st1"/>
<path d="M104.2,112.9c-0.5-0.5-1.2-0.8-1.8-1.1l-0.1,1.5c0.4,0.1,0.7,0.3,1,0.6L104.2,112.9z" class="st1"/>
<path d="M79.1,107.4c-0.8,0.2-0.8,1.1-0.1,1l0,0c2.3-0.3,4.5-0.3,6.8,0c0.8,0.1,0.8-0.9-0.1-1l-0.1-3.2l1.8-3.8&#10;&#9;c-0.4-0.1-0.7-0.2-1.1-0.2H86l-0.7,1.9h-0.2c-0.5,0-1-0.1-1.5-0.1h-0.3V100h-1.8v2h-0.3c-0.5,0-1,0.1-1.5,0.1h-0.2l-0.7-1.9&#10;&#9;c-0.4,0.1-1,0.2-1.3,0.3l1.7,3.7L79.1,107.4z M79.7,104.8v-0.6l0,0h0.2c0.9-0.1,1.8-0.2,2.7-0.2c0.6,0,1.2,0,1.7,0.1v0.7&#10;&#9;c-0.6-0.1-1.1-0.1-1.7-0.1h-1.1v2.3l-0.7,0.1l0.1-2.3c-0.3,0-0.6,0.1-0.8,0.1h-0.2L79.7,104.8L79.7,104.8z" class="st1"/>
<path d="M84.3,109l0.1,2.3c0.4,0,0.8,0,1.1,0.1v0.7l0,0c-0.7-0.1-1.7-0.1-3-0.1h-1.3l-0.1,3.7h1.4c1.4,0,2.5,0,3.2-0.1&#10;&#9;v0.7c-0.3,0-0.7,0.1-1.2,0.1l0.1,3.7c0.4,0,0.8-0.1,1.2-0.2v0.7c-1.1,0.3-2.3,0.4-3.4,0.3c-0.6,0-1.1,0-1.6-0.1l-0.1,3.6&#10;&#9;c-0.2,0-0.5,0-0.6-0.1l0.1-3.6c-0.5-0.1-0.9-0.1-1.4-0.2l0.1-0.7l0,0c1.2,0.3,2.4,0.4,3.6,0.4c0.5,0,1,0,1.5,0l-0.1-3.7h-1.4&#10;&#9;c-1.5,0-2.6,0-3.4-0.1v-0.7l0,0c0.4,0,0.8,0.1,1.3,0.1l0.1-3.6c-0.5,0-0.9,0-1.2,0.1v-0.7c0.7-0.1,1.7-0.1,3.1-0.1h1.3l0.1-2.2&#10;&#9;c-1.6-0.1-3.1,0-4.7,0.2L78.2,124c0.1,0.2,1.5,0.8,4.3,0.8c2.8,0,4.1-0.6,4.1-0.8l-0.7-14.8C85.3,109.1,84.8,109.1,84.3,109" class="st1"/>
<path d="M115.7,99.3l0.7,1.9h0.6v-2.1h3.4v2.1h0.6l0.8-1.9l0.7,0.2h0.2c-0.3-2.2-2.3-3.7-4.5-3.4&#10;&#9;c-1.8,0.3-3.1,1.6-3.4,3.4h0.2L115.7,99.3z" class="st1"/>
<path d="M121.6,102.1h-0.2l-1.5-0.1h-0.3v-2h-1.8v2h-0.3c-0.5,0-1,0.1-1.5,0.1h-0.2l-0.7-1.9h-0.3&#10;&#9;c-0.4,0-0.7,0.1-1.1,0.2l1.8,3.8l-0.1,3.2c-0.9,0.1-0.9,1.1-0.1,1c2.3-0.3,4.5-0.3,6.8,0l0,0c0.7,0.1,0.7-0.9-0.1-1l-0.1-3.1&#10;&#9;l1.7-3.7c-0.4-0.1-0.9-0.2-1.3-0.3L121.6,102.1z M121.4,104.8h-0.2c-0.2,0-0.5-0.1-0.9-0.1v2.3l-0.7-0.1v-2.3h-1&#10;&#9;c-0.6,0-1.1,0-1.7,0.1v-0.7c0.5,0,1.1-0.1,1.7-0.1c0.9,0,1.8,0.1,2.6,0.2h0.2h0.1v0.6v0.1L121.4,104.8z" class="st1"/>
<path d="M117.5,109l-0.1,2.3h1.3c1.4,0,2.4,0,3.1,0.1v0.7c-0.3,0-0.8,0-1.2-0.1l0.1,3.7c0.5,0,1,0,1.3-0.1l0,0v0.7&#10;&#9;c-0.8,0.1-1.9,0.1-3.4,0.1h-1.4l-0.1,3.7c0.5,0,1,0,1.5,0c1.2,0,2.4-0.1,3.6-0.4l0,0v0.7c-0.4,0.1-0.9,0.2-1.4,0.2l0.1,3.6l-0.7,0.1&#10;&#9;l-0.1-3.6c-0.5,0-1.1,0.1-1.7,0.1c-1.1,0-2.3-0.1-3.4-0.3v-0.7c0.4,0.1,0.8,0.2,1.2,0.2l0.1-3.7c-0.5,0-0.8,0-1.2-0.1v-0.7&#10;&#9;c0.7,0.1,1.8,0.1,3.2,0.1h1.6l-0.1-3.7h-1.3c-1.3,0-2.3,0-3,0.1l0,0v-0.7c0.3,0,0.7,0,1.1-0.1l0.1-2.3c-0.5,0-1,0.1-1.5,0.2&#10;&#9;l-0.7,14.8c0.1,0.2,1.2,0.8,4.2,0.8s4.2-0.6,4.3-0.8l-0.8-14.7C120.7,109,119.1,108.9,117.5,109" class="st1"/>
<path d="M102.4,111.2c2.6,0.8,4.4,3.2,4.4,5.9v5.8h7l0.6-12.6h-12L102.4,111.2z M109.4,114.3L109.4,114.3v-1.6&#10;&#9;c0-0.4,0.6-0.9,0.8-1.1l0.2-0.1l0,0l0.2,0.1c0.2,0.2,0.8,0.7,0.8,1.1v1.6l0,0v2.5h-2L109.4,114.3z" class="st1"/>
<path d="M82.1,95.3h0.7V82.2c0.5-0.2,0.8-0.8,0.6-1.3c-0.2-0.5-0.8-0.8-1.3-0.6c-0.4,0.1-0.6,0.5-0.7,0.9&#10;&#9;c0,0.5,0.3,0.9,0.7,1v0.2H75v7.7h7.1L82.1,95.3z M82,81.2c0-0.2,0.2-0.4,0.4-0.4l0,0c0.2,0,0.4,0.2,0.4,0.4s-0.2,0.4-0.4,0.4&#10;&#9;S82,81.4,82,81.2 M79.7,87v2.4h-1.5V87h-2.4v-1.5h2.4v-2.5h1.5v2.5h2.4V87H79.7z" class="st1"/>
<path d="M119.1,82.4v-0.2c0.5-0.2,0.8-0.8,0.6-1.3c-0.2-0.5-0.8-0.8-1.3-0.6c-0.4,0.1-0.6,0.5-0.7,0.9&#10;&#9;c0,0.5,0.3,0.9,0.7,1v13.1h0.6v-5.2h7.1v-7.7H119.1z M118.8,81.6c-0.2,0-0.4-0.2-0.4-0.4s0.2-0.4,0.4-0.4c0.2,0,0.4,0.2,0.4,0.4&#10;&#9;C119.2,81.4,119,81.6,118.8,81.6L118.8,81.6 M125.5,84.2l-2.1,2.1l2.1,2.1v1.1h-1.1l-2.1-2.1l-2.1,2.1h-1.1v-1.1l2.1-2.1l-2.1-2.1&#10;&#9;v-1.1h1l2.2,2.2l2.2-2.2h1.1L125.5,84.2z" class="st1"/>
<path d="M93.1,95V73.5h14.6c1.1,0,2.2,0.2,2.6,1.3c0.2,0.5,0.1,1.1-0.2,1.6c-0.3,0.4-0.7,0.6-1.2,0.6H96.2v1.4&#10;&#9;c0.2,0,0.3-0.1,0.5-0.1c0.1,0,0.2,0,0.3,0v-0.6h12.1c0.7,0,1.3-0.3,1.7-0.9v-0.1c0,0,0,0,0.1-0.1l0,0v-0.1c0.3-0.6,0.4-1.3,0.2-2&#10;&#9;c-0.4-1.3-1.7-2.1-3-2h-16v23h2C93.8,95.4,93.5,95.2,93.1,95L93.1,95z" class="st1"/>
<path d="M96.2,86.6v1.8c0.2,0,0.3-0.1,0.5-0.1c0.1,0,0.2,0,0.3,0v-1.7h-0.3C96.6,86.6,96.4,86.6,96.2,86.6" class="st1"/>
<path d="M89.9,89.8v-0.2c0-0.8-0.2-1.5-0.6-1.6h-0.2c-0.1,0-0.4,0-0.5,0.6l0,0.5l-0.4-0.3c-0.1,0-0.1-0.1-0.2-0.1&#10;&#9;c-0.2,0-0.4,0.2-0.5,0.6c-0.2,0.7,0.2,1.5,0.9,1.7l0.2,0.1v0.2c0,0.6,0.2,1,0.6,1.1s0.5-0.3,0.5-0.5v-0.4l0.4,0.1&#10;&#9;c0.3,0.1,0.6,0.2,0.9,0.2c0.2,0,0.3,0,0.5-0.1v-1.7c-0.5,0.1-1,0-1.5-0.2L89.9,89.8z" class="st1"/>
<path d="M89.9,76.6v-0.2c0-0.8-0.2-1.5-0.6-1.6h-0.2c-0.1,0-0.4,0-0.5,0.6l0,0.5l-0.4-0.3c-0.1,0-0.1-0.1-0.2-0.1&#10;&#9;c-0.2,0-0.4,0.2-0.5,0.6c-0.1,0.7,0.2,1.4,0.9,1.7l0.2,0.1v0.2c0,0.6,0.2,1,0.6,1.1s0.5-0.3,0.5-0.5v-0.4l0.4,0.1&#10;&#9;c0.3,0.1,0.6,0.2,0.9,0.2c0.2,0,0.3,0,0.5-0.1v-1.7c-0.5,0.1-1,0-1.5-0.2L89.9,76.6z" class="st1"/>
<path d="M109.2,97.2H97v-0.6c-0.1,0-0.2,0-0.3,0c-0.2,0-0.3,0-0.5-0.1V98h13c0.8,0.1,1.5-0.2,2-0.8&#10;&#9;c0.1-0.2,0.1-0.5,0-0.8C110.7,97,110,97.3,109.2,97.2" class="st1"/>
<path d="M96.2,92.1v0.7c0.2,0,0.3-0.1,0.5-0.1c0.1,0,0.2,0,0.3,0v-0.6c-0.1,0-0.2,0-0.3,0&#10;&#9;C96.6,92.2,96.4,92.1,96.2,92.1" class="st1"/>
<path d="M93.9,74.6v19.9c0.3,0.2,0.6,0.4,0.9,0.6c0-0.1,0-0.3,0-0.4c0-0.5,0.2-1.1,0.6-1.4v-1.6&#10;&#9;c-0.4-0.4-0.6-0.9-0.6-1.4c0-0.5,0.2-1.1,0.6-1.4v-2.7c-0.4-0.4-0.6-0.9-0.6-1.4c0-0.5,0.2-1.1,0.6-1.4v-1.5&#10;&#9;c-0.4-0.4-0.6-0.9-0.6-1.4c0-0.5,0.2-1.1,0.6-1.4v-2.7h0.3C95.3,75.5,94.7,74.9,93.9,74.6" class="st1"/>
<path d="M108.8,76.1c0.2,0,0.4-0.1,0.6-0.3c0.2-0.2,0.2-0.6,0.1-0.8c-0.1-0.4-0.5-0.7-1.8-0.7H95.2&#10;&#9;c0.6,0.5,1.2,1.1,1.5,1.8H108.8z" class="st1"/>
<path d="M109.8,96.7c0.4-0.1,1-0.3,1.1-0.9V77.7c-0.3,0.3-0.7,0.5-1.1,0.6L109.8,96.7z" class="st1"/>
<path d="M96.7,82.2c-0.2,0-0.3,0-0.5-0.1v0.7c0.2,0,0.3-0.1,0.5-0.1H97v-0.6C96.9,82.2,96.8,82.2,96.7,82.2" class="st1"/>
<path d="M98.4,83.7c0.3-0.3,0.4-0.8,0.4-1.2c0-0.4-0.2-0.9-0.4-1.2l0,0c-0.2,0.3-0.5,0.6-0.8,0.8l0,0v0.9&#10;&#9;C97.9,83.1,98.2,83.4,98.4,83.7" class="st1"/>
<path d="M98.4,93.7c0.6-0.7,0.6-1.7,0-2.5c-0.2,0.3-0.5,0.6-0.8,0.8v0.9C97.9,93.1,98.2,93.4,98.4,93.7" class="st1"/>
<path d="M97.7,84.7c0-0.6-0.4-1-1-1s-1,0.4-1,1s0.4,1,1,1S97.7,85.2,97.7,84.7" class="st1"/>
<path d="M97.7,90.2c0-0.6-0.4-1-1-1s-1,0.4-1,1s0.4,1,1,1S97.7,90.8,97.7,90.2" class="st1"/>
<path d="M96.7,79.3c-0.6,0-1,0.4-1,1s0.4,1,1,1c0.6,0,1-0.4,1-1S97.3,79.3,96.7,79.3" class="st1"/>
<path d="M97.7,94.7c0-0.6-0.4-1-1-1s-1,0.4-1,1s0.4,1,1,1S97.7,95.2,97.7,94.7" class="st1"/>
<polygon points="107.6,81.5 104.6,84.4 107.3,87.2 109.1,85.5 109.1,83" class="st1"/>
<polygon points="109.1,80.1 108.1,81.1 109.1,82.1" class="st1"/>
<path d="M97.6,96.7h5.8l-2.3-2.4l-0.9,0.9l-0.4-0.4l0.9-0.9l-0.4-0.4l0.4-0.4l0.4,0.4l2.5-2.4l-2.7-2.8l-1.3,1.3L99,89&#10;&#9;l1.3-1.3L99,86.5l0.4-0.4l1.3,1.3l3-2.9l-2.7-2.8l-0.4,0.3l-0.4-0.5l0.4-0.3L99.4,80l0.4-0.4l1.2,1.2l2.6-2.4h-6v0.2&#10;&#9;c0.7,0.3,1.1,1,1.1,1.8v0.1c0.6,0.5,1,1.3,1,2.1c0,0.8-0.4,1.6-1,2.1v0.1c0,0.7-0.4,1.4-1.1,1.8v2c0.7,0.3,1.1,1,1.1,1.8v0.1&#10;&#9;c1.2,0.9,1.4,2.7,0.4,3.9c-0.1,0.2-0.3,0.3-0.4,0.4v0.1c0,0.7-0.4,1.4-1.1,1.8L97.6,96.7z" class="st1"/>
<polygon points="105.3,78.3 107.6,80.6 109.1,79.2 109.1,78.3" class="st1"/>
<polygon points="109.1,86.4 107.8,87.7 109.1,89" class="st1"/>
<polygon points="109.1,91.9 109.1,89.9 107.3,88.1 104.3,91 107.1,93.9" class="st1"/>
<polygon points="109.1,92.8 107.5,94.3 109.1,95.9" class="st1"/>
<polygon points="101.4,81.2 104.2,84 107.2,81.1 104.5,78.3" class="st1"/>
<polygon points="101.2,87.8 103.9,90.6 106.9,87.7 104.2,84.9" class="st1"/>
<polygon points="106.7,94.3 103.9,91.5 101.4,93.8 104.2,96.7" class="st1"/>
<polygon points="107.1,94.7 105.1,96.7 109,96.7" class="st1"/>
<path d="M166.3,42.2l0.2,4.9h-1.8c-0.5-2.4-0.8-3.2-2.5-3.2h-1.7v14.8c0,1.7,0.6,2.1,2.4,2.1V62h-8.5v-1.2&#10;&#9;c1.8,0,2.4-0.4,2.4-2.1V43.9h-1.7c-1.8,0-2,0.8-2.5,3.2h-1.8l0.3-4.9H166.3z" class="st2"/>
<path d="M176.1,47.3c0.3,0,0.7,0,1,0.1l-0.7,3.7c-0.4-0.2-0.8-0.2-1.3-0.2c-2.3,0-2.9,0.8-2.9,3.3v4.7&#10;&#9;c0,1.6,0.3,2,2.3,2V62h-7.7v-1.1c1.5-0.1,1.9-0.4,1.9-2V52c0-2.1-0.4-2.4-1.9-2.4v-1.1l4.2-1.1h0.4c0.5,1.1,0.7,2.3,0.7,3.5&#10;&#9;C173,48.6,174.6,47.3,176.1,47.3" class="st2"/>
<path d="M178,62v-1.1c1.6-0.1,1.9-0.4,1.9-2V52c0-2.1-0.4-2.4-1.9-2.4v-1.1l4.9-1.1h0.5v11.5c0,1.6,0.2,2,1.9,2V62H178z&#10;&#9; M181.4,45.6c-1.2,0.1-2.2-0.8-2.3-2c-0.1-1.2,0.8-2.2,2-2.3c0.1,0,0.2,0,0.3,0c1.2,0,2.2,0.9,2.2,2.1c0,0,0,0,0,0.1&#10;&#9;C183.6,44.7,182.6,45.6,181.4,45.6C181.4,45.6,181.4,45.6,181.4,45.6" class="st2"/>
<path d="M200.9,58.9c0,1.6,0.3,1.9,1.8,2V62h-7.1v-1.1c1.6-0.1,1.9-0.4,1.9-1.9v-6.8c0-1.7-0.7-2.4-2-2.4&#10;&#9;c-1.3,0-2.5,0.5-3.4,1.4V59c0,1.5,0.2,1.8,1.9,1.9V62h-7.2v-1.1c1.5-0.1,1.9-0.4,1.9-2V52c0-2.1-0.4-2.4-1.9-2.4v-1.1l4.2-1.1h0.4&#10;&#9;c0.4,0.8,0.6,1.7,0.7,2.5c1.2-1.6,3-2.5,5-2.5c2.1-0.1,3.9,1.4,4,3.5c0,0.2,0,0.4,0,0.7L200.9,58.9z" class="st2"/>
<path d="M204,62v-1.1c1.6-0.1,1.9-0.4,1.9-2V52c0-2.1-0.4-2.4-1.9-2.4v-1.1l4.9-1.1h0.6v11.5c0,1.6,0.2,2,1.9,2V62H204z&#10;&#9; M207.4,45.6c-1.2,0-2.2-1-2.2-2.2c0-1.2,1-2.2,2.2-2.2c1.2,0,2.2,1,2.2,2.2C209.6,44.7,208.7,45.6,207.4,45.6&#10;&#9;C207.5,45.6,207.5,45.6,207.4,45.6" class="st2"/>
<path d="M220.7,49.6h-3v8.1c0,2.2,0.3,2.8,1.7,2.8c0.6,0,1.1-0.1,1.6-0.3l0.3,1.3c-1,0.6-2.2,0.9-3.4,0.9&#10;&#9;c-2.4,0-3.8-1-3.8-4v-8.8h-1.7v-1.2l1.9-0.7c0.2-1.4,0.6-2.7,1.3-3.9l2.2-0.3c-0.2,1.4-0.2,2.8-0.2,4.2h3.4L220.7,49.6z" class="st2"/>
<path d="M223.7,65.6c2.4-0.5,4.2-1.1,5.1-3.8l-1.4,0.1c-0.4-1.7-1-3.4-1.6-5.1l-2.2-6.1c-0.5-1.4-0.9-1.8-2-1.9v-1.2&#10;&#9;h7.1v1.2c-1.4,0.1-1.8,0.3-1.8,0.8c0,0.3,0.1,0.5,0.2,0.7l2,6c0.3,1,0.6,2,0.8,3.1h0.1c0.2-0.9,0.4-1.8,0.7-2.7l2-6.3&#10;&#9;c0.1-0.2,0.1-0.4,0.2-0.6c0.1-0.7-0.4-0.9-1.8-0.9v-1.2h5.7v1.2c-1.1,0.2-1.5,0.4-2,1.9l-4.1,11.5c-1.2,3.4-2.8,5.3-5.9,5.8&#10;&#9;L223.7,65.6z" class="st2"/>
<path d="M151.6,83.3c0-7,3.6-10.5,8.9-10.5c2.1-0.1,4.1,0.3,5.9,1.4v3.6h-2.6c-0.5-2.2-1.2-3.2-3.4-3.2&#10;&#9;c-3,0-4.7,2.1-4.7,8.6c0,6.9,1.9,8.5,4.9,8.5c2.3,0,3.1-1,3.5-3.3h2.5v3.4c-1.8,1.1-3.9,1.6-6.1,1.5&#10;&#9;C154.5,93.3,151.6,89.6,151.6,83.3" class="st2"/>
<path d="M175.5,93.3c-4.2,0-6.9-2.8-6.9-7.5s2.8-7.6,7-7.6s6.9,2.8,6.9,7.5C182.5,90.7,179.4,93.3,175.5,93.3&#10;&#9; M175.5,79.8c-2.3,0-3.1,1.8-3.1,5.8s0.8,6,3.2,6c2,0,3.1-1.9,3.1-6C178.7,81.4,177.6,79.8,175.5,79.8" class="st2"/>
<path d="M189.7,89.8c0,1.7,0.3,2,2,2.1V93h-7.4v-1.2c1.6-0.1,1.9-0.4,1.9-2V76.3c0-2.1-0.5-2.4-2.1-2.4v-1.1l4.7-0.8&#10;&#9;h0.4c0.3,0.9,0.5,1.9,0.4,2.8L189.7,89.8z" class="st2"/>
<path d="M198.4,89.8c0,1.7,0.3,2,1.9,2.1V93h-7.4v-1.2c1.6-0.1,1.9-0.4,1.9-2V76.3c0-2.1-0.4-2.4-2.1-2.4v-1.1l4.7-0.8&#10;&#9;h0.4c0.3,0.9,0.5,1.9,0.4,2.8L198.4,89.8z" class="st2"/>
<path d="M213.7,90.1l0.6,1.1c-1.5,1.4-3.5,2.2-5.6,2.1c-4.3,0-6.8-2.8-6.8-7.6s2.7-7.5,6.6-7.5c4.1,0,6.1,2.6,6.1,7v1&#10;&#9;h-8.9c0.1,3.7,1.4,5,4.2,5C211.3,91.2,212.6,90.8,213.7,90.1 M205.7,84.5h5.3c0-3.5-0.7-4.7-2.5-4.7S205.9,80.9,205.7,84.5" class="st2"/>
<path d="M216.4,95.4c0.1-0.9,0.6-1.7,1.5-2l2.1-0.1c-0.2,0.4-0.3,0.9-0.3,1.4c0,1.5,0.8,2.2,3.2,2.2&#10;&#9;c2.7,0,3.7-0.9,3.7-2.4s-0.8-1.9-4.1-2c-1.1,0-2.4-0.1-3-0.2c-1.2-0.1-2.1-1.2-2-2.4c0-1.3,1.2-2.3,2.9-2.8&#10;&#9;c-2.1-0.3-3.6-2.1-3.6-4.2c0-3,2.3-4.8,5.8-4.8c0.9,0,1.8,0.1,2.6,0.4c0.6,0.2,1.2,0.3,1.9,0.3c1-0.1,1.9-0.5,2.6-1.2l1.2,2.3&#10;&#9;c-0.6,0.4-1.4,0.7-2.2,0.7c-0.7,0-1.4-0.2-2-0.5c0.9,0.6,1.5,1.7,1.5,2.8c0,3.4-3.3,4.3-6.2,4.3H222c-0.8,0.3-1.4,0.7-1.4,1.2&#10;&#9;s0.2,0.7,0.9,0.7l2.7,0.1c3.5,0.1,5.4,1,5.4,4.1c0,3.3-2.9,4.9-6.9,4.9S216.4,97.2,216.4,95.4 M224.9,83c0-2.3-0.7-3.2-2.3-3.2&#10;&#9;s-2.2,0.9-2.2,3.1s0.8,3.1,2.3,3.1S224.9,85.1,224.9,83" class="st2"/>
<path d="M243.1,90.1l0.6,1.1c-1.5,1.4-3.5,2.2-5.6,2.1c-4.3,0-6.8-2.8-6.8-7.6s2.7-7.5,6.6-7.5c4.1,0,6.1,2.6,6.1,7v1&#10;&#9;h-8.9c0.1,3.7,1.3,5,4.2,5C240.6,91.2,241.9,90.8,243.1,90.1 M235.1,84.5h5.3c0-3.5-0.7-4.7-2.5-4.7S235.3,80.9,235.1,84.5" class="st2"/>
<path d="M151.3,122.8c1.7,0,2.1-0.5,2.1-2.1v-13.2c0-1.6-0.4-2.1-2.1-2.1v-1.2h7.9c5.8,0,9.5,2.9,9.5,10&#10;&#9;c0,6.1-2.9,9.9-9.6,9.9h-7.8V122.8z M159,122.2c3.9,0,5.7-1.5,5.7-7.9c0-6.6-1.8-8.5-5.6-8.5h-1.9v16.4H159z" class="st2"/>
<path d="M184.4,119.8c0,2.1,0.3,2.3,1.9,2.4v1l-4.1,1h-0.4c-0.4-0.8-0.6-1.6-0.7-2.4c-1.1,1.5-2.9,2.4-4.8,2.4&#10;&#9;c-2.4,0-4-1.2-4-3.9v-6.5c0-2.1-0.4-2.4-1.8-2.4v-1.1l4.7-1h0.7v10.3c0,1.7,0.6,2.3,2,2.3c1.2,0,2.3-0.5,3.2-1.4v-6.6&#10;&#9;c0-2.1-0.4-2.4-1.8-2.4v-1.1l4.7-1h0.6L184.4,119.8z" class="st2"/>
<path d="M191.1,123.9h-2.3c0.3-1.1,0.5-2.2,0.4-3.4v-13.3c0-2.1-0.4-2.4-2-2.4v-1.1l4.6-0.8h0.4&#10;&#9;c0.3,0.9,0.5,1.9,0.4,2.8v5.6c1-1.4,2.6-2.2,4.3-2.2c3.4,0,5.5,2.4,5.5,7.3c0,5.2-2.4,7.7-6.2,7.7c-1.7,0.1-3.3-0.7-4.3-2.1&#10;&#9;C191.8,122.8,191.5,123.4,191.1,123.9 M195.8,111.6c-1.2,0-2.3,0.5-3.1,1.4v7.7c0.7,0.9,1.8,1.4,3,1.3c2,0,3.1-1.1,3.1-5.4&#10;&#9;C198.7,112.8,197.7,111.6,195.8,111.6" class="st2"/>
<path d="M209.7,120.7c0,1.7,0.3,2,2,2.1v1.2h-7.4v-1.2c1.6-0.1,1.9-0.4,1.9-2v-13.5c0-2.1-0.5-2.4-2.1-2.4v-1.1l4.7-0.8&#10;&#9;h0.4c0.3,0.9,0.5,1.9,0.4,2.8L209.7,120.7z" class="st2"/>
<path d="M213,123.9v-1.2c1.6-0.1,1.9-0.4,1.9-2v-6.9c0-2.1-0.4-2.4-1.9-2.4v-1.1l4.9-1h0.6v11.5c0,1.6,0.2,2,1.9,2v1.2&#10;&#9;L213,123.9z M216.4,107.6c-1.2,0-2.2-1-2.2-2.2c0-1.2,1-2.2,2.2-2.2c1.2,0,2.2,1,2.2,2.2C218.6,106.6,217.7,107.6,216.4,107.6&#10;&#9;C216.5,107.6,216.5,107.6,216.4,107.6" class="st2"/>
<path d="M235.9,120.8c0,1.6,0.3,1.9,1.8,2v1.2h-7.1v-1.2c1.6-0.1,1.9-0.4,1.9-1.9v-6.8c0-1.7-0.7-2.3-2-2.3&#10;&#9;c-1.3,0-2.5,0.5-3.4,1.4v7.7c0,1.5,0.2,1.8,1.9,1.9v1.2h-7.2v-1.2c1.6-0.1,1.9-0.4,1.9-2v-6.9c0-2.1-0.4-2.4-1.9-2.4v-1.1l4.2-1.1&#10;&#9;h0.4c0.4,0.8,0.6,1.7,0.7,2.6c1.2-1.6,3-2.5,5-2.5c2.1-0.1,3.9,1.4,4,3.5c0,0.2,0,0.4,0,0.6L235.9,120.8z" class="st2"/>
<polygon points="65.7,150.8 62.2,150.8 62.2,149.5 70.8,149.5 70.8,150.8 67.2,150.8 67.2,161.4 65.7,161.4" class="st0"/>
<path d="M72.9,148.5h1.5v3.5l0,1.8c0.7-0.9,1.8-1.4,2.9-1.4c1.8,0,2.7,1.2,2.7,3.4v5.6h-1.5V156c0-1.6-0.5-2.4-1.7-2.4&#10;&#9;c-0.9,0-1.5,0.5-2.4,1.4v6.4h-1.5V148.5z" class="st0"/>
<path d="M86.2,152.4c2.2,0,3.5,1.6,3.5,4.1c0,0.3,0,0.5-0.1,0.8h-5.9c0.1,1.9,1.2,3.1,2.9,3.1c0.8,0,1.5-0.2,2.2-0.7&#10;&#9;l0.5,1c-0.9,0.6-1.9,0.9-2.9,0.9c-2.4,0-4.2-1.7-4.2-4.6S84.2,152.4,86.2,152.4 M88.4,156.4c0-1.8-0.8-2.8-2.2-2.8s-2.3,1-2.5,2.8&#10;&#9;H88.4z" class="st0"/>
<path d="M95.8,149.5h1.5v7c0,2.8,1.2,3.8,2.8,3.8c1.5,0,2.8-0.9,2.8-3.8v-7h1.4v7c0,3.8-1.8,5.1-4.2,5.1&#10;&#9;s-4.3-1.3-4.3-5.1L95.8,149.5z" class="st0"/>
<path d="M107.5,152.6h1.2l0.1,1.3h0.1c0.7-0.9,1.8-1.4,2.9-1.5c1.8,0,2.7,1.2,2.7,3.4v5.6H113V156&#10;&#9;c0-1.6-0.5-2.4-1.7-2.4c-0.9,0.1-1.8,0.6-2.3,1.4v6.4h-1.5V152.6z" class="st0"/>
<path d="M117.2,149.9c0-0.6,0.4-1,1-1s1,0.4,1,1s-0.4,1-1,1S117.2,150.4,117.2,149.9 M117.5,152.6h1.5v8.8h-1.5V152.6z" class="st0"/>
<path d="M120.8,152.6h1.5l1.7,5c0.3,0.9,0.6,1.8,0.8,2.6h0.1c0.2-0.8,0.5-1.7,0.8-2.6l1.7-5h1.5l-3.1,8.8H124&#10;&#9;L120.8,152.6z" class="st0"/>
<path d="M133.8,152.4c2.2,0,3.5,1.6,3.5,4.1c0,0.3,0,0.5,0,0.8h-6c0.1,1.9,1.2,3.1,2.9,3.1c0.8,0,1.5-0.2,2.2-0.7l0.5,1&#10;&#9;c-0.9,0.6-1.9,0.9-2.9,0.9c-2.3,0-4.2-1.7-4.2-4.6S131.8,152.4,133.8,152.4 M136,156.4c0-1.8-0.8-2.8-2.2-2.8s-2.4,1-2.5,2.8H136z" class="st0"/>
<path d="M139.6,152.6h1.2l0.1,1.6l0,0c0.4-1,1.4-1.7,2.5-1.8c0.3,0,0.6,0.1,0.9,0.2l-0.3,1.3c-0.3-0.1-0.6-0.1-0.8-0.1&#10;&#9;c-0.7,0-1.6,0.5-2.2,2v5.6h-1.5V152.6z" class="st0"/>
<path d="M145.6,159.4c0.7,0.7,1.6,1,2.6,1.1c1.2,0,1.7-0.6,1.7-1.4s-1-1.3-2-1.7c-1.2-0.5-2.6-1-2.6-2.5s1.1-2.5,3-2.5&#10;&#9;c1,0,2,0.4,2.7,1l-0.7,0.9c-0.6-0.5-1.3-0.7-2-0.8c-1.1,0-1.6,0.6-1.6,1.3c0,0.8,1,1.1,2,1.5c1.3,0.5,2.7,1,2.7,2.6&#10;&#9;c0,1.4-1.1,2.6-3.2,2.6c-1.2,0-2.3-0.4-3.3-1.2L145.6,159.4z" class="st0"/>
<path d="M153.2,149.9c0-0.6,0.5-1,1-1s1,0.5,1,1l0,0c0,0.6-0.5,1-1,1S153.2,150.4,153.2,149.9 M153.5,152.6h1.5v8.8&#10;&#9;h-1.5V152.6z" class="st0"/>
<path d="M158.3,153.8H157v-1.1l1.4-0.1l0.2-2.5h1.2v2.5h2.4v1.2h-2.4v4.9c0,1.1,0.3,1.7,1.4,1.7c0.3,0,0.7-0.1,1-0.2&#10;&#9;l0.3,1.1c-0.5,0.2-1.1,0.3-1.6,0.3c-1.9,0-2.5-1.2-2.5-2.9L158.3,153.8z" class="st0"/>
<path d="M164.4,163.9c1,0,1.6-0.8,2-1.9l0.2-0.7l-3.5-8.8h1.5l1.8,4.9c0.3,0.8,0.6,1.7,0.8,2.5h0.1&#10;&#9;c0.2-0.8,0.5-1.7,0.7-2.5l1.6-4.9h1.4l-3.3,9.5c-0.6,1.7-1.5,3.1-3.3,3.1c-0.3,0-0.7-0.1-1-0.2l0.3-1.2&#10;&#9;C163.9,163.9,164.1,163.9,164.4,163.9" class="st0"/>
<path d="M180.1,152.4c2.1,0,4.1,1.7,4.1,4.6s-1.9,4.6-4.1,4.6s-4.1-1.7-4.1-4.6S177.9,152.4,180.1,152.4 M180.1,160.4&#10;&#9;c1.5,0,2.5-1.4,2.5-3.4s-1-3.4-2.5-3.4c-1.5,0-2.5,1.4-2.5,3.4S178.5,160.4,180.1,160.4" class="st0"/>
<path d="M190.5,149.7c-0.3-0.1-0.7-0.2-1-0.2c-0.8,0-1.2,0.6-1.2,1.7v1.4h1.9v1.2h-1.9v7.6h-1.5v-7.6h-1.2v-1.1l1.2-0.1&#10;&#9;v-1.4c0-1.8,0.8-2.9,2.6-2.9c0.5,0,1,0.1,1.5,0.3L190.5,149.7z" class="st0"/>
<path d="M195.9,149.5h3c3.6,0,5.6,2.1,5.6,5.9s-1.9,6-5.5,6h-3L195.9,149.5z M198.7,160.1c2.8,0,4.1-1.8,4.1-4.7&#10;&#9;s-1.4-4.6-4.1-4.6h-1.4v9.4H198.7z" class="st0"/>
<path d="M206.8,152.6h1.5v5.4c0,1.6,0.5,2.3,1.6,2.3c0.9,0,1.5-0.4,2.4-1.5v-6.2h1.5v8.8h-1.2l-0.1-1.4h-0.1&#10;&#9;c-0.7,1-1.7,1.5-2.9,1.6c-1.9,0-2.7-1.2-2.7-3.4V152.6z" class="st0"/>
<path d="M216.9,148.5h1.5v3.5v1.6c0.7-0.7,1.7-1.2,2.8-1.2c2.3,0,3.5,1.8,3.5,4.5c0,3-1.8,4.7-3.8,4.7&#10;&#9;c-0.9,0-1.8-0.4-2.5-1.1h-0.1l-0.1,0.9h-1.2L216.9,148.5z M220.5,160.4c1.4,0,2.5-1.3,2.5-3.5c0-1.9-0.7-3.2-2.3-3.2&#10;&#9;c-0.9,0.1-1.7,0.5-2.3,1.2v4.6C218.9,160,219.7,160.3,220.5,160.4" class="st0"/>
<path d="M227,148.5h1.5v11.2c0,0.5,0.2,0.7,0.4,0.7c0.1,0,0.2,0,0.3,0l0.2,1.1c-0.3,0.1-0.6,0.2-0.9,0.1&#10;&#9;c-1.1,0-1.6-0.7-1.6-2L227,148.5z" class="st0"/>
<path d="M231.5,149.9c0-0.6,0.5-1,1-1s1,0.5,1,1l0,0c0,0.6-0.5,1-1,1S231.5,150.4,231.5,149.9 M231.8,152.6h1.5v8.8&#10;&#9;h-1.5V152.6z" class="st0"/>
<path d="M236.3,152.6h1.2l0.1,1.3h0.1c0.7-0.9,1.8-1.4,2.9-1.5c1.9,0,2.7,1.2,2.7,3.4v5.6h-1.5V156&#10;&#9;c0-1.6-0.5-2.4-1.7-2.4c-0.9,0-1.5,0.5-2.4,1.4v6.4h-1.5L236.3,152.6z" class="st0"/>
</svg>