<svg xmlns="http://www.w3.org/2000/svg" viewBox="0 0 636.74 176.03"><path d="M326.64 27.25v-15.6h4.51v15.2c0 3.49 2.18 5.17 5.07 5.17s5.08-1.78 5.08-5.17v-15.2h4.54v15.6c0 6.19-4.46 9.15-9.63 9.15s-9.58-2.96-9.58-9.15Zm23.39-9.15h4.21v2.5c.95-1.74 3-2.96 5.63-2.96 3.62 0 7.01 2.37 7.01 7.44v10.89h-4.31v-9.71c0-3.06-1.61-4.71-3.91-4.71-2.57 0-4.34 1.97-4.34 4.77v9.64h-4.28V18.09Zm20.47-4.83c0-1.55 1.19-2.7 2.73-2.7s2.73 1.15 2.73 2.7-1.22 2.7-2.73 2.7-2.73-1.15-2.73-2.7m.56 22.7V18.1h4.31v17.87zm25.5-17.87-7.8 17.84h-3.23l-7.77-17.84h4.74l4.71 11.98 4.64-11.98zm18.11 10.47h-13.62c.53 2.3 2.2 4.11 5.46 4.11 2.01 0 4.34-.76 5.89-1.84l1.71 3.06c-1.68 1.25-4.51 2.47-7.77 2.47-6.71 0-9.68-4.61-9.68-9.35 0-5.33 3.72-9.34 9.28-9.34 5.04 0 8.85 3.32 8.85 8.98 0 .72-.07 1.32-.13 1.91Zm-13.62-3.26h9.54c-.36-2.5-2.2-4.05-4.64-4.05s-4.34 1.58-4.9 4.05m17.08-7.21h4.11v2.47c1.12-2.01 2.83-2.93 4.97-2.93.66 0 1.42.1 2.14.36l-.36 4.11c-.69-.23-1.42-.36-2.07-.36-2.47 0-4.51 1.58-4.51 5.49v8.72h-4.28V18.09Zm11.85 14.78 2.43-2.63c1.22 1.61 3.06 2.53 4.8 2.53 1.55 0 2.63-.82 2.63-1.88 0-.76-.49-1.28-1.35-1.71-1.02-.49-3.32-1.28-4.44-1.84-2.01-.99-2.99-2.6-2.99-4.54 0-3.06 2.53-5.3 6.48-5.3 2.27 0 4.51.79 6.12 2.63l-2.24 2.73c-1.25-1.32-2.8-1.84-4.01-1.84-1.38 0-2.17.76-2.17 1.68 0 .63.39 1.32 1.55 1.75 1.15.46 2.9 1.05 4.31 1.78 1.97 1.05 3.03 2.44 3.03 4.54 0 3.16-2.7 5.66-6.94 5.66-2.8 0-5.49-1.15-7.21-3.55Zm16.95-19.61c0-1.55 1.19-2.7 2.73-2.7s2.73 1.15 2.73 2.7-1.22 2.7-2.73 2.7-2.73-1.15-2.73-2.7m.56 22.7V18.1h4.31v17.87zm21.47-1.05c-1.38.95-3.36 1.48-5.17 1.48-4.05 0-6.12-2.43-6.12-6.98v-7.7h-2.96V18.1h3.03v-6.32h4.25v6.32h5.99v3.62h-5.99v7.54c0 2.11.76 3.23 2.6 3.23 1.15 0 2.14-.4 3.03-.92l1.35 3.36Zm19.12-16.82-7.24 19.02c-1.68 4.31-3.85 6.45-7.27 6.45-1.28 0-2.47-.3-3.29-.86l.69-3.62c.69.33 1.48.59 2.27.59 1.45 0 2.53-.82 3.49-2.9l.43-.99-7.8-17.7h4.97l4.84 12.08 4.25-12.08h4.67Zm7.85 8.92c0-5.17 3.88-9.38 9.54-9.38s9.54 4.21 9.54 9.38-3.88 9.41-9.54 9.41-9.54-4.21-9.54-9.41m14.78 0c0-2.96-2.27-5.4-5.23-5.4s-5.23 2.44-5.23 5.4 2.27 5.43 5.23 5.43 5.23-2.4 5.23-5.43m13.13-9.64v.72h5.59v3.62h-5.59v14.25h-4.28V21.72h-2.83V18.1h2.83v-.82c0-4.67 3.03-7.01 7.11-7.01 1.81 0 3.39.49 4.81 1.22l-1.35 3.36c-.99-.43-1.88-.72-2.86-.72-2.2 0-3.42 1.15-3.42 3.26ZM340.05 69.79h-8.62l-2.01 5.53h-4.77L334.06 51h3.46l9.31 24.32h-4.77zm-7.3-4.05h6.02l-2.99-8.33zm35.48.63c0 5.2-3.72 9.38-8.85 9.38-2.53 0-4.41-1.12-5.76-2.66v9.58h-4.31V57.46h4.28v2.37c1.35-1.61 3.26-2.8 5.82-2.8 5.13 0 8.82 4.18 8.82 9.34m-4.31.03c0-2.99-2.07-5.43-5.2-5.43s-5.2 2.47-5.2 5.43 2.04 5.43 5.2 5.43 5.2-2.44 5.2-5.43m26.18-.03c0 5.2-3.72 9.38-8.85 9.38-2.53 0-4.41-1.12-5.76-2.66v9.58h-4.31V57.46h4.28v2.37c1.35-1.61 3.26-2.8 5.82-2.8 5.13 0 8.82 4.18 8.82 9.34m-4.31.03c0-2.99-2.07-5.43-5.2-5.43s-5.2 2.47-5.2 5.43 2.04 5.43 5.2 5.43 5.2-2.44 5.2-5.43m7.23 8.92V50.31h4.28v25.01zm8.16-22.71c0-1.55 1.19-2.7 2.73-2.7s2.73 1.15 2.73 2.7-1.22 2.7-2.73 2.7-2.73-1.15-2.73-2.7m.56 22.71V57.45h4.31v17.87zm25.64-7.41h-13.62c.53 2.3 2.2 4.11 5.46 4.11 2.01 0 4.34-.76 5.89-1.84l1.71 3.06c-1.68 1.25-4.51 2.47-7.77 2.47-6.71 0-9.68-4.61-9.68-9.35 0-5.33 3.72-9.34 9.28-9.34 5.04 0 8.85 3.32 8.85 8.98 0 .72-.07 1.32-.13 1.91Zm-13.63-3.25h9.54c-.36-2.5-2.2-4.05-4.64-4.05s-4.34 1.58-4.9 4.05m34.88-14.35v25.01h-4.18v-2.34c-1.28 1.58-3.13 2.76-5.69 2.76-5.1 0-8.89-4.05-8.89-9.38s3.82-9.34 8.85-9.34c2.53 0 4.34 1.15 5.63 2.7v-9.41zm-4.04 16.06c0-2.96-2.07-5.43-5.23-5.43s-5.2 2.47-5.2 5.43 2.07 5.46 5.2 5.46 5.23-2.44 5.23-5.46m15.99 4.7 2.7-3.09c1.55 2.34 3.88 3.52 6.32 3.52 2.24 0 3.72-1.22 3.72-2.83 0-1.32-1.02-2.14-2.27-2.76-1.58-.76-3.59-1.35-5.27-2.34-2.14-1.25-3.82-3.06-3.82-5.99 0-3.92 3.23-6.98 8.06-6.98 2.8 0 5.63.99 7.8 3.36l-2.5 3.23c-1.41-1.61-3.59-2.37-5.23-2.37-1.97 0-3.29 1.05-3.29 2.57 0 1.28.99 2.04 2.01 2.57 1.28.66 3.82 1.65 5.46 2.5 2.34 1.18 4.01 2.96 4.01 5.96 0 4.28-3.55 7.3-8.72 7.3-3.62 0-7.01-1.58-8.98-4.64Zm19.88-4.7c0-5.46 3.92-9.34 9.58-9.34 3.55 0 6.81 1.74 8.29 4.9l-3.49 1.88c-1.02-1.71-2.73-2.83-4.74-2.83-3.09 0-5.36 2.34-5.36 5.4s2.2 5.4 5.23 5.4c1.97 0 3.95-1.15 4.81-2.8l3.49 2.04c-1.51 2.83-4.67 4.71-8.36 4.71-5.56 0-9.44-3.92-9.44-9.35Zm20.01-13.76c0-1.55 1.18-2.7 2.73-2.7s2.73 1.15 2.73 2.7-1.22 2.7-2.73 2.7-2.73-1.15-2.73-2.7m.56 22.71V57.45h4.31v17.87zm25.38-7.41h-13.62c.53 2.3 2.2 4.11 5.46 4.11 2.01 0 4.34-.76 5.89-1.84l1.71 3.06c-1.68 1.25-4.51 2.47-7.77 2.47-6.71 0-9.67-4.61-9.67-9.35 0-5.33 3.72-9.34 9.28-9.34 5.03 0 8.85 3.32 8.85 8.98 0 .72-.07 1.32-.13 1.91m-13.63-3.25h9.54c-.36-2.5-2.2-4.05-4.64-4.05s-4.34 1.58-4.9 4.05m16.83-7.21h4.21v2.5c.95-1.74 2.99-2.96 5.63-2.96 3.62 0 7.01 2.37 7.01 7.44v10.89h-4.31v-9.71c0-3.06-1.61-4.71-3.92-4.71-2.57 0-4.34 1.97-4.34 4.77v9.64h-4.28V57.44Zm19.75 8.92c0-5.46 3.92-9.34 9.58-9.34 3.55 0 6.81 1.74 8.29 4.9l-3.49 1.88c-1.02-1.71-2.73-2.83-4.74-2.83-3.09 0-5.36 2.34-5.36 5.4s2.2 5.4 5.23 5.4c1.97 0 3.95-1.15 4.8-2.8l3.49 2.04c-1.51 2.83-4.67 4.71-8.36 4.71-5.56 0-9.44-3.92-9.44-9.35Zm37.48 1.54h-13.62c.53 2.3 2.2 4.11 5.46 4.11 2.01 0 4.34-.76 5.89-1.84l1.71 3.06c-1.68 1.25-4.51 2.47-7.77 2.47-6.71 0-9.67-4.61-9.67-9.35 0-5.33 3.72-9.34 9.28-9.34 5.03 0 8.85 3.32 8.85 8.98 0 .72-.07 1.32-.13 1.91m-13.62-3.25h9.54c-.36-2.5-2.2-4.05-4.64-4.05s-4.34 1.58-4.9 4.05m15.31 7.57 2.43-2.63c1.22 1.61 3.06 2.53 4.8 2.53 1.55 0 2.63-.82 2.63-1.88 0-.76-.49-1.28-1.35-1.71-1.02-.49-3.32-1.28-4.44-1.84-2.01-.99-2.99-2.6-2.99-4.54 0-3.06 2.53-5.3 6.48-5.3 2.27 0 4.51.79 6.12 2.63l-2.24 2.73c-1.25-1.32-2.8-1.84-4.01-1.84-1.38 0-2.17.76-2.17 1.68 0 .63.39 1.32 1.55 1.75 1.15.46 2.9 1.05 4.31 1.78 1.97 1.05 3.03 2.44 3.03 4.54 0 3.16-2.7 5.66-6.94 5.66-2.8 0-5.5-1.15-7.21-3.55Zm-263.45 41.56 2.7-3.09c1.55 2.34 3.88 3.52 6.32 3.52 2.24 0 3.72-1.22 3.72-2.83 0-1.32-1.02-2.14-2.27-2.76-1.58-.76-3.59-1.35-5.27-2.34-2.14-1.25-3.82-3.06-3.82-5.99 0-3.92 3.23-6.98 8.06-6.98 2.8 0 5.63.99 7.8 3.36l-2.5 3.23c-1.41-1.61-3.59-2.37-5.23-2.37-1.97 0-3.29 1.05-3.29 2.57 0 1.28.99 2.04 2.01 2.57 1.28.66 3.82 1.65 5.46 2.5 2.34 1.18 4.01 2.96 4.01 5.96 0 4.28-3.55 7.3-8.72 7.3-3.62 0-7.01-1.58-8.98-4.64Zm33.17 3.19c-1.38.95-3.36 1.48-5.17 1.48-4.05 0-6.12-2.43-6.12-6.98v-7.7H344v-3.62h3.03v-6.32h4.24v6.32h5.99v3.62h-5.99v7.54c0 2.11.76 3.23 2.6 3.23 1.15 0 2.14-.4 3.03-.92l1.35 3.36Zm1.86-.57c0-1.42 1.16-2.51 2.61-2.51s2.51 1.09 2.51 2.51-1.12 2.58-2.51 2.58c-1.45 0-2.61-1.09-2.61-2.58m31.64-14.76c0 4.05-2.57 7.8-8.75 7.8h-3.95v8.59h-4.48V93.72h8.79c5.96 0 8.39 3.95 8.39 7.93m-4.58-.07c0-1.94-1.28-3.68-3.72-3.68h-4.41v7.44h4.08c2.83 0 4.05-1.91 4.05-3.75Zm6.26 7.5c0-5.17 3.88-9.38 9.54-9.38s9.54 4.21 9.54 9.38-3.88 9.41-9.54 9.41-9.54-4.21-9.54-9.41m3.42-13.98c0-1.45 1.19-2.57 2.67-2.57s2.6 1.12 2.6 2.57c0 1.55-1.15 2.67-2.6 2.67s-2.67-1.12-2.67-2.67m11.35 13.98c0-2.96-2.27-5.4-5.23-5.4s-5.23 2.44-5.23 5.4 2.27 5.43 5.23 5.43 5.23-2.4 5.23-5.43m-4.34-13.98c0-1.45 1.15-2.57 2.66-2.57s2.6 1.12 2.6 2.57c0 1.55-1.15 2.67-2.6 2.67s-2.66-1.12-2.66-2.67m12.01 22.94V93.03h4.28v25.01zm21.29-1.06c-1.38.95-3.36 1.48-5.17 1.48-4.05 0-6.12-2.43-6.12-6.98v-7.7h-2.96v-3.62h3.03v-6.32h4.24v6.32h5.99v3.62h-5.99v7.54c0 2.11.76 3.23 2.6 3.23 1.15 0 2.14-.4 3.03-.92l1.35 3.36Zm19.06-6.35H442.6c.53 2.3 2.2 4.11 5.46 4.11 2.01 0 4.34-.76 5.89-1.84l1.71 3.06c-1.68 1.25-4.51 2.47-7.77 2.47-6.71 0-9.67-4.61-9.67-9.35 0-5.33 3.72-9.34 9.28-9.34 5.04 0 8.85 3.32 8.85 8.98 0 .72-.06 1.32-.13 1.91m-13.63-3.26h9.54c-.36-2.5-2.2-4.05-4.64-4.05s-4.34 1.58-4.9 4.05m17.09-7.2h4.21v2.5c.95-1.74 2.99-2.96 5.63-2.96 3.62 0 7.01 2.37 7.01 7.44v10.89h-4.31v-9.71c0-3.06-1.61-4.71-3.92-4.71-2.57 0-4.34 1.97-4.34 4.77v9.64h-4.28v-17.87Z"/><path fill="#0074cc" d="M164.43 11.66v28.52c0 39.98-29.7 73-68.24 78.26 15.89 31.56 48.19 53.43 85.7 54.38 55.73 1.41 101.3-44.32 101.3-100.07V11.66zm-78.77 0H6.37v28.52c0 43.64 35.37 79.01 79.01 79.01 3.66 0 7.25-.27 10.77-.75-6.72-13.34-10.52-28.39-10.52-44.35z"/></svg>