<?xml version="1.0" standalone="no"?>
<!DOCTYPE svg PUBLIC "-//W3C//DTD SVG 1.1//EN" "http://www.w3.org/Graphics/SVG/1.1/DTD/svg11.dtd">
<svg xmlns:inkscape="http://www.inkscape.org/namespaces/inkscape" xmlns:sodipodi="http://sodipodi.sourceforge.net/DTD/sodipodi-0.dtd" xmlns="http://www.w3.org/2000/svg" xmlns:svg="http://www.w3.org/2000/svg" version="1.1" width="3183.080078125" height="643.7184448242188" viewBox="0 0 3183.0800377857636 643.7184547255185" id="svg15" sodipodi:docname="Blue logo - no background.svg" inkscape:version="1.1.2 (0a00cf5339, 2022-02-04)">
  <defs id="defs19">
    <defs id="SvgjsDefs16970"/>
  </defs>
  <sodipodi:namedview id="namedview17" pagecolor="#ffffff" bordercolor="#666666" borderopacity="1.0" inkscape:pageshadow="2" inkscape:pageopacity="0.0" inkscape:pagecheckerboard="0" showgrid="false" inkscape:zoom="0.36851099" inkscape:cx="1624.1035" inkscape:cy="341.91653" inkscape:window-width="1920" inkscape:window-height="1008" inkscape:window-x="1093" inkscape:window-y="40" inkscape:window-maximized="1" inkscape:current-layer="svg15"/>
  <g id="SvgjsG16971" featureKey="Df7oLJ-0" transform="matrix(0.69808929,0,0,0.69808929,89.47473,26.52859)" fill="#000000" style="fill:#212c4a;fill-opacity:1">
    <defs id="defs3"/>
    <g id="g7" style="fill:#212c4a;fill-opacity:1">
      <path class="fil0" d="m 351,634 c 47,-53 44,-115 21,-178 -88,5 -178,27 -242,93 83,-18 147,36 195,98 7,-6 16,-11 26,-13 z m 40,4 c 11,6 20,15 26,26 98,-54 203,-55 308,-23 4,-11 10,-19 19,-27 -6,-46 -24,-82 -60,-109 -33,10 -63,-4 -76,-34 -70,-10 -138,-16 -200,-16 20,63 23,127 -17,183 z M 359,423 c -12,-25 -26,-50 -41,-76 -17,-2 -29,-8 -40,-19 -73,40 -151,97 -183,177 6,4 12,9 16,15 67,-66 157,-90 248,-97 z m -7,-84 c 17,28 31,56 43,83 66,-2 137,4 210,14 l 1,-7 C 560,332 473,310 373,321 c -6,7 -13,14 -21,18 z M 767,564 C 763,435 733,305 645,206 c -31,18 -70,5 -85,-27 -67,14 -128,41 -182,82 3,8 5,16 5,25 102,-8 193,19 246,113 60,-42 125,32 83,86 26,21 44,47 55,79 z m 34,38 c 26,8 43,32 43,58 0,70 -100,85 -119,17 C 622,643 520,643 424,699 416,785 283,761 305,678 260,615 198,556 116,589 95,622 49,628 21,600 -17,563 9,498 62,496 96,406 181,343 263,298 c -10,-52 48,-92 93,-63 59,-45 126,-74 199,-89 9,-75 121,-68 121,7 0,11 -3,20 -7,29 103,115 133,270 132,420 z" style="fill:#212c4a;fill-rule:nonzero;fill-opacity:1" id="path5"/>
    </g>
  </g>
  <g id="SvgjsG16972" featureKey="Ua4uQk-0" transform="matrix(21.41136,0,0,21.41136,834.78255,6.96771)" fill="#000000" style="fill:#212c4a;fill-opacity:1">
    <path d="M 16.3,6 V 20 H 12.98 V 13.24 L 10.12,20 H 7.34 L 4.52,13.28 V 20 H 1.2 V 6 H 4.38 L 8.76,15.72 13.12,6 Z m 7.38,3.42 c 2.36,0 5.66,1.78 5,6.48 h -7.26 c 0.36,1.08 1.3,1.64 2.56,1.64 1.28,0 1.68,-0.28 2.4,-0.58 l 1.74,1.68 c -0.92,0.9 -2.16,1.56 -4.26,1.56 -2.58,0 -5.66,-1.78 -5.66,-5.36 0,-3.64 3.12,-5.42 5.48,-5.42 z m 0,2.7 c -0.9,0 -1.82,0.52 -2.22,1.56 h 4.42 c -0.32,-1.04 -1.3,-1.56 -2.2,-1.56 z M 37.96,9.6 h 3.16 V 20 h -3.16 v -1.04 c -0.14,0.36 -1.08,1.24 -2.68,1.24 -2.38,0 -5.12,-1.7 -5.12,-5.42 0,-3.58 2.74,-5.36 5.12,-5.36 1.6,0 2.54,0.92 2.68,1.14 z m -2.22,7.82 c 1.3,0 2.36,-0.9 2.36,-2.64 0,-1.68 -1.06,-2.58 -2.36,-2.58 -1.36,0 -2.52,0.92 -2.52,2.58 0,1.72 1.16,2.64 2.52,2.64 z m 13.8,-7.98 c 1.94,0 3.92,1.3 3.92,4.6 V 20 H 50.3 v -5.74 c 0,-1.58 -0.54,-2.08 -1.54,-2.08 -1.42,0 -2.24,1.38 -2.44,1.98 V 20 H 43.16 V 9.6 h 3.16 v 1.8 c 0.2,-0.5 1.26,-1.96 3.22,-1.96 z m 9,-3.58 V 8.52 H 55.38 V 5.86 Z m 0,3.74 V 20 H 55.38 V 9.6 Z m 8.42,-0.16 c 1.94,0 3.92,1.3 3.92,4.6 V 20 h -3.16 v -5.74 c 0,-1.58 -0.54,-2.08 -1.54,-2.08 -1.42,0 -2.24,1.38 -2.44,1.98 V 20 H 60.58 V 9.6 h 3.16 v 1.8 C 63.94,10.9 65,9.44 66.96,9.44 Z M 80.28,9.6 h 3.16 V 20 c 0,3.16 -3.2,4.12 -5.52,4.12 -1.1,0 -2.1,-0.18 -2.74,-0.52 v -2.58 c 0.64,0.34 1.6,0.48 2.74,0.48 1.86,0 2.36,-0.96 2.36,-1.5 v -1.04 c -0.14,0.36 -1.08,1.24 -2.68,1.24 -2.38,0 -5.12,-1.7 -5.12,-5.42 0,-3.58 2.74,-5.36 5.12,-5.36 1.6,0 2.54,0.92 2.68,1.14 z m -2.22,7.82 c 1.3,0 2.36,-0.9 2.36,-2.64 0,-1.68 -1.06,-2.58 -2.36,-2.58 -1.36,0 -2.52,0.92 -2.52,2.58 0,1.72 1.16,2.64 2.52,2.64 z M 90.34,8.26 c -0.9,0 -0.88,0.82 -0.88,1.02 V 9.6 h 2.16 v 2.6 H 89.46 V 20 H 86.28 V 12.2 H 84.86 V 9.6 h 1.42 V 9.28 c 0,-3.22 2.42,-3.62 3.68,-3.62 1,0 1.98,0.22 2.72,0.7 L 91.62,8.54 C 91.04,8.32 90.82,8.26 90.34,8.26 Z m 11.92,1.3 h 3.14 L 99.04,23.8 H 95.88 L 97.8,19.64 93.3,9.56 h 3.14 l 2.92,6.68 z" id="path10" style="fill:#212c4a;fill-opacity:1"/>
  </g>
</svg>